<?xml version="1.0" encoding="UTF-8" standalone="no"?>
<svg id="svg2" xmlns:rdf="http://www.w3.org/1999/02/22-rdf-syntax-ns#" xmlns="http://www.w3.org/2000/svg" xml:space="preserve" viewBox="0 0 90 90" version="1.1" xmlns:cc="http://creativecommons.org/ns#" xmlns:dc="http://purl.org/dc/elements/1.1/"><metadata id="metadata8"><rdf:RDF><cc:Work rdf:about=""><dc:format>image/svg+xml</dc:format><dc:type rdf:resource="http://purl.org/dc/dcmitype/StillImage"/><dc:title/></cc:Work></rdf:RDF></metadata><defs id="defs6"><clipPath id="clipPath20" clipPathUnits="userSpaceOnUse"><path id="path22" d="M0,0,72,0,72,72,0,72,0,0z"/></clipPath><clipPath id="clipPath34" clipPathUnits="userSpaceOnUse"><path id="path36" d="M0,0,72,0,72,72,0,72,0,0z"/></clipPath><clipPath id="clipPath48" clipPathUnits="userSpaceOnUse"><path id="path50" d="M0,0,72,0,72,72,0,72,0,0z"/></clipPath><clipPath id="clipPath58" clipPathUnits="userSpaceOnUse"><path id="path60" d="M0,0,72,0,72,72,0,72,0,0z"/></clipPath><clipPath id="clipPath68" clipPathUnits="userSpaceOnUse"><path id="path70" d="M0,0,72,0,72,72,0,72,0,0z"/></clipPath><clipPath id="clipPath82" clipPathUnits="userSpaceOnUse"><path id="path84" d="M0,0,72,0,72,72,0,72,0,0z"/></clipPath><clipPath id="clipPath96" clipPathUnits="userSpaceOnUse"><path id="path98" d="M0,0,72,0,72,72,0,72,0,0z"/></clipPath><clipPath id="clipPath110" clipPathUnits="userSpaceOnUse"><path id="path112" d="M0,0,72,0,72,72,0,72,0,0z"/></clipPath><clipPath id="clipPath124" clipPathUnits="userSpaceOnUse"><path id="path126" d="M0,0,72,0,72,72,0,72,0,0z"/></clipPath><clipPath id="clipPath138" clipPathUnits="userSpaceOnUse"><path id="path140" d="M0,0,72,0,72,72,0,72,0,0z"/></clipPath><clipPath id="clipPath152" clipPathUnits="userSpaceOnUse"><path id="path154" d="M0,0,72,0,72,72,0,72,0,0z"/></clipPath><clipPath id="clipPath162" clipPathUnits="userSpaceOnUse"><path id="path164" d="M0,0,72,0,72,72,0,72,0,0z"/></clipPath><clipPath id="clipPath172" clipPathUnits="userSpaceOnUse"><path id="path174" d="M0,0,72,0,72,72,0,72,0,0z"/></clipPath><clipPath id="clipPath182" clipPathUnits="userSpaceOnUse"><path id="path184" d="M0,0,72,0,72,72,0,72,0,0z"/></clipPath><clipPath id="clipPath192" clipPathUnits="userSpaceOnUse"><path id="path194" d="M0,0,72,0,72,72,0,72,0,0z"/></clipPath></defs><g id="g12" transform="matrix(1.25,0,0,-1.25,0,90)"><path id="path14" fill-opacity="0" d="M0,0,72,0,72,72,0,72,0,0"/><g id="g16"><g id="g18" stroke-linejoin="round" clip-path="url(#clipPath20)" stroke-opacity="0.2" fill-rule="nonzero" fill-opacity="0.2" stroke="#F00" stroke-linecap="butt" stroke-miterlimit="10" stroke-width="1" fill="#F00"><path id="path24" style="stroke-dasharray:none;" d="m17.217,59.559c1.6391,0,3.2112,0.6512,4.3702,1.8102s1.8102,2.7311,1.8102,4.3702-0.6512,3.2112-1.8102,4.3702-2.7311,1.8102-4.3702,1.8102-3.2112-0.6512-4.3702-1.8102-1.8102-2.7311-1.8102-4.3702,0.6512-3.2112,1.8102-4.3702,2.7311-1.8102,4.3702-1.8102z"/><path id="path26" style="stroke-dasharray:none;" d="m17.217,50.167c1.6391,0,3.2112,0.6512,4.3702,1.8102s1.8102,2.7311,1.8102,4.3702-0.6512,3.2112-1.8102,4.3702-2.7311,1.8102-4.3702,1.8102-3.2112-0.6512-4.3702-1.8102-1.8102-2.7311-1.8102-4.3702,0.6512-3.2112,1.8102-4.3702,2.7311-1.8102,4.3702-1.8102z"/><path id="path28" style="stroke-dasharray:none;" d="m26.609,50.167c1.6391,0,3.2112,0.6512,4.3702,1.8102s1.8102,2.7311,1.8102,4.3702-0.6512,3.2112-1.8102,4.3702-2.7311,1.8102-4.3702,1.8102-3.2112-0.6512-4.3702-1.8102-1.8102-2.7311-1.8102-4.3702,0.6512-3.2112,1.8102-4.3702,2.7311-1.8102,4.3702-1.8102z"/></g></g><g id="g30"><g id="g32" stroke-linejoin="round" clip-path="url(#clipPath34)" stroke-opacity="0.8" fill-rule="nonzero" fill-opacity="0.8" stroke="#F00" stroke-linecap="butt" stroke-miterlimit="10" stroke-width="1" fill="#F00"><path id="path38" style="stroke-dasharray:none;" d="m17.217,62.171c0.94631,0,1.854,0.37597,2.5231,1.0451,0.66914,0.66914,1.0451,1.5768,1.0451,2.5231,0,0.94631-0.37597,1.854-1.0451,2.5231-0.66914,0.66914-1.5768,1.0451-2.5231,1.0451-0.94631,0-1.854-0.37597-2.5231-1.0451-0.66914-0.66914-1.0451-1.5768-1.0451-2.5231,0-0.94631,0.37597-1.854,1.0451-2.5231,0.66914-0.66914,1.5768-1.0451,2.5231-1.0451z"/><path id="path40" style="stroke-dasharray:none;" d="m17.217,52.78c0.94631,0,1.854,0.37597,2.5231,1.0451,0.66914,0.66914,1.0451,1.5768,1.0451,2.5231,0,0.94631-0.37597,1.854-1.0451,2.5231-0.66914,0.66914-1.5768,1.0451-2.5231,1.0451-0.94631,0-1.854-0.37597-2.5231-1.0451-0.66914-0.66914-1.0451-1.5768-1.0451-2.5231,0-0.94631,0.37597-1.854,1.0451-2.5231,0.66914-0.66914,1.5768-1.0451,2.5231-1.0451z"/><path id="path42" style="stroke-dasharray:none;" d="m26.609,52.78c0.94631,0,1.854,0.37597,2.5231,1.0451,0.66914,0.66914,1.0451,1.5768,1.0451,2.5231,0,0.94631-0.37597,1.854-1.0451,2.5231-0.66914,0.66914-1.5768,1.0451-2.5231,1.0451-0.94631,0-1.854-0.37597-2.5231-1.0451-0.66914-0.66914-1.0451-1.5768-1.0451-2.5231,0-0.94631,0.37597-1.854,1.0451-2.5231,0.66914-0.66914,1.5768-1.0451,2.5231-1.0451z"/></g></g><g id="g44"><g id="g46" clip-path="url(#clipPath48)"><path id="path52" stroke-linejoin="round" style="stroke-dasharray:none;" d="m36,59.559c1.6391,0,3.2112,0.6512,4.3702,1.8102s1.8102,2.7311,1.8102,4.3702-0.6512,3.2112-1.8102,4.3702-2.7311,1.8102-4.3702,1.8102-3.2112-0.6512-4.3702-1.8102-1.8102-2.7311-1.8102-4.3702,0.6512-3.2112,1.8102-4.3702,2.731-1.81,4.37-1.81z" stroke-opacity="0.2" fill-rule="nonzero" fill-opacity="0.2" stroke="#008000" stroke-linecap="butt" stroke-miterlimit="10" stroke-width="1" fill="#008000"/></g></g><g id="g54"><g id="g56" clip-path="url(#clipPath58)"><path id="path62" stroke-linejoin="round" style="stroke-dasharray:none;" d="m36,62.171c0.94631,0,1.854,0.37597,2.5231,1.0451,0.66914,0.66914,1.0451,1.5768,1.0451,2.5231,0,0.94631-0.37597,1.854-1.0451,2.5231-0.669,0.669-1.577,1.045-2.523,1.045-0.94631,0-1.854-0.37597-2.5231-1.0451-0.66914-0.66914-1.0451-1.5768-1.0451-2.5231,0-0.94631,0.37597-1.854,1.0451-2.5231,0.669-0.669,1.577-1.045,2.523-1.045z" stroke-opacity="0.8" fill-rule="nonzero" fill-opacity="0.8" stroke="#008000" stroke-linecap="butt" stroke-miterlimit="10" stroke-width="1" fill="#008000"/></g></g><g id="g64"><g id="g66" stroke-linejoin="round" clip-path="url(#clipPath68)" stroke-opacity="0.2" fill-rule="nonzero" fill-opacity="0.2" stroke="#00008b" stroke-linecap="butt" stroke-miterlimit="10" stroke-width="1" fill="#00008b"><path id="path72" style="stroke-dasharray:none;" d="m54.783,40.776c1.6391,0,3.2112,0.6512,4.3702,1.8102s1.8102,2.7311,1.8102,4.3702-0.6512,3.2112-1.8102,4.3702-2.7311,1.8102-4.3702,1.8102-3.2112-0.6512-4.3702-1.8102-1.8102-2.7311-1.8102-4.3702,0.6512-3.2112,1.8102-4.3702,2.7311-1.8102,4.3702-1.8102z"/><path id="path74" style="stroke-dasharray:none;" d="m54.783,50.167c1.6391,0,3.2112,0.6512,4.3702,1.8102s1.8102,2.7311,1.8102,4.3702-0.6512,3.2112-1.8102,4.3702-2.7311,1.8102-4.3702,1.8102-3.2112-0.6512-4.3702-1.8102-1.8102-2.7311-1.8102-4.3702,0.6512-3.2112,1.8102-4.3702,2.7311-1.8102,4.3702-1.8102z"/><path id="path76" style="stroke-dasharray:none;" d="m54.783,59.559c1.6391,0,3.2112,0.6512,4.3702,1.8102s1.8102,2.7311,1.8102,4.3702-0.6512,3.2112-1.8102,4.3702-2.7311,1.8102-4.3702,1.8102-3.2112-0.6512-4.3702-1.8102-1.8102-2.7311-1.8102-4.3702,0.6512-3.2112,1.8102-4.3702,2.7311-1.8102,4.3702-1.8102z"/></g></g><g id="g78"><g id="g80" stroke-linejoin="round" clip-path="url(#clipPath82)" stroke-opacity="0.8" fill-rule="nonzero" fill-opacity="0.8" stroke="#00008b" stroke-linecap="butt" stroke-miterlimit="10" stroke-width="1" fill="#00008b"><path id="path86" style="stroke-dasharray:none;" d="m54.783,43.388c0.94631,0,1.854,0.37597,2.5231,1.0451,0.66914,0.66914,1.0451,1.5768,1.0451,2.5231,0,0.94631-0.37597,1.854-1.0451,2.5231-0.66914,0.66914-1.5768,1.0451-2.5231,1.0451-0.94631,0-1.854-0.37597-2.5231-1.0451-0.66914-0.66914-1.0451-1.5768-1.0451-2.5231,0-0.94631,0.37597-1.854,1.0451-2.5231,0.66914-0.66914,1.5768-1.0451,2.5231-1.0451z"/><path id="path88" style="stroke-dasharray:none;" d="m54.783,52.78c0.94631,0,1.854,0.37597,2.5231,1.0451,0.66914,0.66914,1.0451,1.5768,1.0451,2.5231,0,0.94631-0.37597,1.854-1.0451,2.5231-0.66914,0.66914-1.5768,1.0451-2.5231,1.0451-0.94631,0-1.854-0.37597-2.5231-1.0451-0.66914-0.66914-1.0451-1.5768-1.0451-2.5231,0-0.94631,0.37597-1.854,1.0451-2.5231,0.66914-0.66914,1.5768-1.0451,2.5231-1.0451z"/><path id="path90" style="stroke-dasharray:none;" d="m54.783,62.171c0.94631,0,1.854,0.37597,2.5231,1.0451,0.66914,0.66914,1.0451,1.5768,1.0451,2.5231,0,0.94631-0.37597,1.854-1.0451,2.5231-0.66914,0.66914-1.5768,1.0451-2.5231,1.0451-0.94631,0-1.854-0.37597-2.5231-1.0451-0.66914-0.66914-1.0451-1.5768-1.0451-2.5231,0-0.94631,0.37597-1.854,1.0451-2.5231,0.66914-0.66914,1.5768-1.0451,2.5231-1.0451z"/></g></g><g id="g92"><g id="g94" stroke-linejoin="round" clip-path="url(#clipPath96)" stroke-opacity="0.2" fill-rule="nonzero" fill-opacity="0.2" stroke="#00545c" stroke-linecap="butt" stroke-miterlimit="10" stroke-width="1" fill="#00545c"><path id="path100" style="stroke-dasharray:none;" d="m36,0.080482c1.6391,0,3.2112,0.6512,4.3702,1.8102s1.8102,2.7311,1.8102,4.3702-0.6512,3.2112-1.8102,4.3702-2.7311,1.8102-4.3702,1.8102-3.2112-0.6512-4.3702-1.8102-1.8102-2.7311-1.8102-4.3702,0.6512-3.2112,1.8102-4.3702c1.159-1.1589,2.731-1.8101,4.37-1.8101z"/><path id="path102" style="stroke-dasharray:none;" d="m36,18.863c1.6391,0,3.2112,0.6512,4.3702,1.8102s1.8102,2.7311,1.8102,4.3702-0.6512,3.2112-1.8102,4.3702-2.7311,1.8102-4.3702,1.8102-3.2112-0.6512-4.3702-1.8102-1.8102-2.7311-1.8102-4.3702,0.6512-3.2112,1.8102-4.3702,2.731-1.81,4.37-1.81z"/><path id="path104" style="stroke-dasharray:none;" d="m45.391,18.863c1.6391,0,3.2112,0.6512,4.3702,1.8102s1.8102,2.7311,1.8102,4.3702-0.6512,3.2112-1.8102,4.3702-2.7311,1.8102-4.3702,1.8102-3.2112-0.6512-4.3702-1.8102-1.8102-2.7311-1.8102-4.3702,0.6512-3.2112,1.8102-4.3702,2.7311-1.8102,4.3702-1.8102z"/></g></g><g id="g106"><g id="g108" stroke-linejoin="round" clip-path="url(#clipPath110)" stroke-opacity="0.8" fill-rule="nonzero" fill-opacity="0.8" stroke="#00545c" stroke-linecap="butt" stroke-miterlimit="10" stroke-width="1" fill="#00545c"><path id="path114" style="stroke-dasharray:none;" d="m36,2.6926c0.94631,0,1.854,0.37597,2.5231,1.0451,0.66914,0.66914,1.0451,1.5768,1.0451,2.5231,0,0.94631-0.37597,1.854-1.0451,2.5231-0.669,0.6692-1.577,1.0452-2.523,1.0452-0.94631,0-1.854-0.37597-2.5231-1.0451-0.66914-0.66914-1.0451-1.5768-1.0451-2.5231,0-0.94631,0.37597-1.854,1.0451-2.5231,0.669-0.6692,1.577-1.0452,2.523-1.0452z"/><path id="path116" style="stroke-dasharray:none;" d="m36,21.475c0.94631,0,1.854,0.37597,2.5231,1.0451,0.66914,0.66914,1.0451,1.5768,1.0451,2.5231,0,0.94631-0.37597,1.854-1.0451,2.5231-0.669,0.67-1.577,1.046-2.523,1.046-0.94631,0-1.854-0.37597-2.5231-1.0451-0.66914-0.66914-1.0451-1.5768-1.0451-2.5231,0-0.94631,0.37597-1.854,1.0451-2.5231,0.669-0.67,1.577-1.046,2.523-1.046z"/><path id="path118" style="stroke-dasharray:none;" d="m45.391,21.475c0.94631,0,1.854,0.37597,2.5231,1.0451,0.66914,0.66914,1.0451,1.5768,1.0451,2.5231,0,0.94631-0.37597,1.854-1.0451,2.5231-0.66914,0.66914-1.5768,1.0451-2.5231,1.0451-0.94631,0-1.854-0.37597-2.5231-1.0451-0.66914-0.66914-1.0451-1.5768-1.0451-2.5231,0-0.94631,0.37597-1.854,1.0451-2.5231,0.66914-0.66914,1.5768-1.0451,2.5231-1.0451z"/></g></g><g id="g120"><g id="g122" stroke-linejoin="round" clip-path="url(#clipPath124)" stroke-opacity="0.2" fill-rule="nonzero" fill-opacity="0.2" stroke="#808080" stroke-linecap="butt" stroke-miterlimit="10" stroke-width="1" fill="#808080"><path id="path128" style="stroke-dasharray:none;" d="m54.783,18.863c1.6391,0,3.2112,0.6512,4.3702,1.8102s1.8102,2.7311,1.8102,4.3702-0.6512,3.2112-1.8102,4.3702-2.7311,1.8102-4.3702,1.8102-3.2112-0.6512-4.3702-1.8102-1.8102-2.7311-1.8102-4.3702,0.6512-3.2112,1.8102-4.3702,2.7311-1.8102,4.3702-1.8102z"/><path id="path130" style="stroke-dasharray:none;" d="m64.174,9.4718c1.6391,0,3.2112,0.6512,4.3702,1.8102s1.8102,2.7311,1.8102,4.3702-0.6512,3.2112-1.8102,4.3702-2.7311,1.8102-4.3702,1.8102-3.2112-0.6512-4.3702-1.8102-1.8102-2.7311-1.8102-4.3702,0.6512-3.2112,1.8102-4.3702,2.7311-1.8102,4.3702-1.8102z"/><path id="path132" style="stroke-dasharray:none;" d="m64.174,18.863c1.6391,0,3.2112,0.6512,4.3702,1.8102s1.8102,2.7311,1.8102,4.3702-0.6512,3.2112-1.8102,4.3702-2.7311,1.8102-4.3702,1.8102-3.2112-0.6512-4.3702-1.8102-1.8102-2.7311-1.8102-4.3702,0.6512-3.2112,1.8102-4.3702,2.7311-1.8102,4.3702-1.8102z"/></g></g><g id="g134"><g id="g136" stroke-linejoin="round" clip-path="url(#clipPath138)" stroke-opacity="0.8" fill-rule="nonzero" fill-opacity="0.8" stroke="#808080" stroke-linecap="butt" stroke-miterlimit="10" stroke-width="1" fill="#808080"><path id="path142" style="stroke-dasharray:none;" d="m54.783,21.475c0.94631,0,1.854,0.37597,2.5231,1.0451,0.66914,0.66914,1.0451,1.5768,1.0451,2.5231,0,0.94631-0.37597,1.854-1.0451,2.5231-0.66914,0.66914-1.5768,1.0451-2.5231,1.0451-0.94631,0-1.854-0.37597-2.5231-1.0451-0.66914-0.66914-1.0451-1.5768-1.0451-2.5231,0-0.94631,0.37597-1.854,1.0451-2.5231,0.66914-0.66914,1.5768-1.0451,2.5231-1.0451z"/><path id="path144" style="stroke-dasharray:none;" d="m64.174,12.084c0.94631,0,1.854,0.37597,2.5231,1.0451,0.66914,0.66914,1.0451,1.5768,1.0451,2.5231,0,0.94631-0.37597,1.854-1.0451,2.5231-0.66914,0.66914-1.5768,1.0451-2.5231,1.0451-0.94631,0-1.854-0.37597-2.5231-1.0451-0.66914-0.66914-1.0451-1.5768-1.0451-2.5231,0-0.94631,0.37597-1.854,1.0451-2.5231,0.66914-0.66914,1.5768-1.0451,2.5231-1.0451z"/><path id="path146" style="stroke-dasharray:none;" d="m64.174,21.475c0.94631,0,1.854,0.37597,2.5231,1.0451,0.66914,0.66914,1.0451,1.5768,1.0451,2.5231,0,0.94631-0.37597,1.854-1.0451,2.5231-0.66914,0.66914-1.5768,1.0451-2.5231,1.0451-0.94631,0-1.854-0.37597-2.5231-1.0451-0.66914-0.66914-1.0451-1.5768-1.0451-2.5231,0-0.94631,0.37597-1.854,1.0451-2.5231,0.66914-0.66914,1.5768-1.0451,2.5231-1.0451z"/></g></g><g id="g148"><g id="g150" clip-path="url(#clipPath152)"><path id="path156" stroke-linejoin="round" style="stroke-dasharray:none;" d="M5.2904,67.458,6.4699,31.291,7.5252,15.121,8.4563,8.1399,9.015,6.0226,9.5737,4.9707l1.0553-0.040236,1.3657,2.0632,8.2561,16.847,2.5451,3.1008,3.1659,2.7238,3.1659,1.8455,4.2212,1.5874,5.2765,1.1582,7.387,0.83516,11.608,0.54066,9.4976,0.17621" stroke-opacity="0.8" stroke="#00545c" stroke-linecap="square" stroke-miterlimit="10" stroke-width="2" fill="none"/></g></g><g id="g158"><g id="g160" clip-path="url(#clipPath162)"><path id="path166" stroke-linejoin="round" style="stroke-dasharray:none;" d="M5.2904,67.458,6.4699,31.291,7.5252,15.121,8.4563,8.1399,9.015,6.0226,9.5737,4.9707l1.0553-0.040236,1.3657,2.0632,8.2561,16.847,2.5451,3.1008,3.1659,2.7238,3.1659,1.8455,4.2212,1.5874,5.2765,1.1582,7.387,0.83516,11.608,0.54066,9.4976,0.17621" stroke-opacity="0.6" stroke="#00545c" stroke-linecap="square" stroke-miterlimit="10" stroke-width="4" fill="none"/></g></g><g id="g168"><g id="g170" clip-path="url(#clipPath172)"><path id="path176" stroke-linejoin="round" style="stroke-dasharray:none;" d="M5.2904,67.458,6.4699,31.291,7.5252,15.121,8.4563,8.1399,9.015,6.0226,9.5737,4.9707l1.0553-0.040236,1.3657,2.0632,8.2561,16.847,2.5451,3.1008,3.1659,2.7238,3.1659,1.8455,4.2212,1.5874,5.2765,1.1582,7.387,0.83516,11.608,0.54066,9.4976,0.17621" stroke-opacity="0.4" stroke="#00545c" stroke-linecap="square" stroke-miterlimit="10" stroke-width="6" fill="none"/></g></g><g id="g178"><g id="g180" clip-path="url(#clipPath182)"><path id="path186" stroke-linejoin="round" style="stroke-dasharray:none;" d="M5.2904,67.458,6.4699,31.291,7.5252,15.121,8.4563,8.1399,9.015,6.0226,9.5737,4.9707l1.0553-0.040236,1.3657,2.0632,8.2561,16.847,2.5451,3.1008,3.1659,2.7238,3.1659,1.8455,4.2212,1.5874,5.2765,1.1582,7.387,0.83516,11.608,0.54066,9.4976,0.17621" stroke-opacity="0.2" stroke="#00545c" stroke-linecap="square" stroke-miterlimit="10" stroke-width="8" fill="none"/></g></g><g id="g188"><g id="g190" clip-path="url(#clipPath192)"><path id="path196" stroke-linejoin="round" style="stroke-dasharray:none;" d="M5.2904,67.458,6.4699,31.291,7.5252,15.121,8.4563,8.1399,9.015,6.0226,9.5737,4.9707l1.0553-0.040236,1.3657,2.0632,8.2561,16.847,2.5451,3.1008,3.1659,2.7238,3.1659,1.8455,4.2212,1.5874,5.2765,1.1582,7.387,0.83516,11.608,0.54066,9.4976,0.17621" stroke-opacity="0.1" stroke="#00545c" stroke-linecap="square" stroke-miterlimit="10" stroke-width="10" fill="none"/></g></g></g></svg>