<?xml version="1.0" encoding="UTF-8" standalone="no"?>
<svg id="svg7209" xmlns:rdf="http://www.w3.org/1999/02/22-rdf-syntax-ns#" xmlns="http://www.w3.org/2000/svg" viewBox="0 0 785.08 90" version="1.1" xmlns:cc="http://creativecommons.org/ns#" xmlns:dc="http://purl.org/dc/elements/1.1/">
 <defs id="defs7211">
  <clipPath id="clipPath6937" clipPathUnits="userSpaceOnUse">
   <path id="path6939" d="M0,0,72,0,72,72,0,72,0,0z"/>
  </clipPath>
  <clipPath id="clipPath6951" clipPathUnits="userSpaceOnUse">
   <path id="path6953" d="M0,0,72,0,72,72,0,72,0,0z"/>
  </clipPath>
  <clipPath id="clipPath6965" clipPathUnits="userSpaceOnUse">
   <path id="path6967" d="M0,0,72,0,72,72,0,72,0,0z"/>
  </clipPath>
  <clipPath id="clipPath6975" clipPathUnits="userSpaceOnUse">
   <path id="path6977" d="M0,0,72,0,72,72,0,72,0,0z"/>
  </clipPath>
  <clipPath id="clipPath6985" clipPathUnits="userSpaceOnUse">
   <path id="path6987" d="M0,0,72,0,72,72,0,72,0,0z"/>
  </clipPath>
  <clipPath id="clipPath6999" clipPathUnits="userSpaceOnUse">
   <path id="path7001" d="M0,0,72,0,72,72,0,72,0,0z"/>
  </clipPath>
  <clipPath id="clipPath7013" clipPathUnits="userSpaceOnUse">
   <path id="path7015" d="M0,0,72,0,72,72,0,72,0,0z"/>
  </clipPath>
  <clipPath id="clipPath7027" clipPathUnits="userSpaceOnUse">
   <path id="path7029" d="M0,0,72,0,72,72,0,72,0,0z"/>
  </clipPath>
  <clipPath id="clipPath7041" clipPathUnits="userSpaceOnUse">
   <path id="path7043" d="M0,0,72,0,72,72,0,72,0,0z"/>
  </clipPath>
  <clipPath id="clipPath7055" clipPathUnits="userSpaceOnUse">
   <path id="path7057" d="M0,0,72,0,72,72,0,72,0,0z"/>
  </clipPath>
  <clipPath id="clipPath7069" clipPathUnits="userSpaceOnUse">
   <path id="path7071" d="M0,0,72,0,72,72,0,72,0,0z"/>
  </clipPath>
  <clipPath id="clipPath7079" clipPathUnits="userSpaceOnUse">
   <path id="path7081" d="M0,0,72,0,72,72,0,72,0,0z"/>
  </clipPath>
  <clipPath id="clipPath7089" clipPathUnits="userSpaceOnUse">
   <path id="path7091" d="M0,0,72,0,72,72,0,72,0,0z"/>
  </clipPath>
  <clipPath id="clipPath7099" clipPathUnits="userSpaceOnUse">
   <path id="path7101" d="M0,0,72,0,72,72,0,72,0,0z"/>
  </clipPath>
  <clipPath id="clipPath7109" clipPathUnits="userSpaceOnUse">
   <path id="path7111" d="M0,0,72,0,72,72,0,72,0,0z"/>
  </clipPath>
 </defs>
 <metadata id="metadata7214">
  <rdf:RDF>
   <cc:Work rdf:about="">
    <dc:format>image/svg+xml</dc:format>
    <dc:type rdf:resource="http://purl.org/dc/dcmitype/StillImage"/>
    <dc:title/>
   </cc:Work>
  </rdf:RDF>
 </metadata>
 <g id="layer1" transform="translate(-5,-957.3622)">
  <g id="text3333" font-size="19px" transform="translate(0,952.36168)" font-family="Candara" fill="#999">
   <path id="path6539" d="m122.8,87.996-2.041,0c0.0716-2.4779,0.10741-4.6979,0.10742-6.6602h-6.4346c0,1.5898,0.0358,3.8099,0.10742,6.6602h-2.041c0.10026-2.6139,0.15039-5.0631,0.15039-7.3477,0-2.3919-0.0501-4.6048-0.15039-6.6387h2.041c-0.0859,2.0482-0.12891,4.0391-0.1289,5.9727h6.4775c-0.00001-1.554-0.043-3.5449-0.12891-5.9727h2.041c-0.10744,1.9909-0.16115,4.2038-0.16114,6.6387-0.00001,2.6712,0.0537,5.1204,0.16114,7.3477z"/>
   <path id="path6541" d="m128.19,87.996-1.9443,0c0.10026-1.4323,0.15039-3.0687,0.15039-4.9092,0-2.0697-0.12533-3.8063-0.37598-5.21l2.1484-0.29004c-0.0859,1.4968-0.12891,3.3301-0.12891,5.5,0,1.7188,0.0501,3.3551,0.15039,4.9092zm0.45118-13.428c-0.00001,0.36525-0.11817,0.68214-0.3545,0.95068-0.23633,0.26857-0.56934,0.40284-0.99902,0.40283-0.36524,0.000012-0.6499-0.11636-0.854-0.34912-0.20411-0.23274-0.30616-0.51382-0.30616-0.84326,0-0.35806,0.12175-0.66958,0.36524-0.93457,0.24349-0.26496,0.58007-0.39745,1.0098-0.39746,0.35091,0.000014,0.62842,0.11639,0.83252,0.34912,0.2041,0.23276,0.30615,0.50669,0.30616,0.82178z"/>
   <path id="path6543" d="m141.16,76.437-0.17187,1.4824c-1.332,0.00001-2.0661,0.21485-2.2022,0.64453v0.10742c0.45832,0.5586,0.68749,1.196,0.6875,1.9121-0.00001,1.1172-0.36703,2.0392-1.1011,2.7661-0.73406,0.72689-1.8674,1.0903-3.3999,1.0903-0.68034,0.000003-1.221-0.07161-1.6221-0.21484-0.35091,0.25065-0.52637,0.56218-0.52636,0.93457-0.00001,0.45834,0.20768,0.7627,0.62304,0.91309,0.52995,0.20052,1.6364,0.30078,3.3193,0.30078,2.7213,0.000002,4.082,0.90234,4.082,2.707-0.00001,1.2891-0.52996,2.3561-1.5898,3.2012-1.0599,0.84505-2.4313,1.2676-4.1143,1.2676-1.7259-0.000006-2.9559-0.31332-3.6899-0.93994-0.73405-0.62663-1.1011-1.3804-1.1011-2.2612,0-0.80208,0.18083-1.4466,0.54248-1.9336,0.36166-0.48698,0.81104-0.78776,1.3482-0.90234v-0.09668c-0.56576-0.27214-0.84864-0.79492-0.84863-1.5684-0.00001-0.70182,0.35807-1.3177,1.0742-1.8477v-0.08594c-0.37956-0.18619-0.74121-0.5013-1.085-0.94531-0.34375-0.444-0.51562-0.99544-0.51562-1.6543,0-1.1387,0.37597-2.0661,1.1279-2.7822,0.75195-0.71614,1.8405-1.0742,3.2656-1.0742,1.1673,0.00001,2.084,0.21127,2.75,0.63379h0.11817c0.22916-1.2103,0.83072-1.8154,1.8047-1.8154,0.52994,0.000012,0.93814,0.05372,1.2246,0.16113zm-1.9228,13.374c-0.00001-0.67318-0.24529-1.1476-0.73584-1.4233-0.49057-0.27572-1.4126-0.41358-2.7661-0.41358-0.91667,0-1.7546-0.04297-2.5137-0.12891-0.8737,0.42253-1.3106,1.042-1.3106,1.8584,0,1.7474,1.1458,2.6211,3.4375,2.6211,1.196-0.000004,2.1431-0.23275,2.8413-0.69824,0.69823-0.4655,1.0474-1.0706,1.0474-1.8154zm-1.4932-8.7871c-0.00001-0.78775-0.24887-1.3911-0.74658-1.8101-0.49773-0.41894-1.1297-0.62841-1.896-0.62842-0.72331,0.00001-1.3284,0.20232-1.8154,0.60693-0.48698,0.40463-0.73047,0.97934-0.73047,1.7241,0,0.7806,0.24886,1.375,0.74658,1.7832,0.49772,0.40821,1.1369,0.61231,1.9175,0.6123,0.71614,0.000005,1.3159-0.19873,1.7993-0.59619,0.48339-0.39746,0.72509-0.96142,0.7251-1.6919z"/>
   <path id="path6545" d="m152.02,87.996-1.9551,0c0.15754-1.8835,0.23632-3.9102,0.23633-6.0801-0.00001-1.1601-0.21665-1.9425-0.64991-2.3472-0.43327-0.40461-1.033-0.60692-1.7993-0.60693-1.0742,0.000009-2.0804,0.36882-3.0186,1.1064,0,3.9102,0.0286,6.5527,0.0859,7.9277h-1.8906c0.0645-1.8906,0.0967-4.5618,0.0967-8.0137,0-3.0221-0.10384-5.389-0.31152-7.1006l2.041-0.10742c-0.0573,2.1843-0.0859,4.2109-0.0859,6.0801h0.0645c1.0742-0.9453,2.2523-1.418,3.5342-1.418,1.1458,0.000011,2.041,0.26678,2.6856,0.80029,0.64452,0.53354,0.96679,1.4699,0.9668,2.8091-0.00001,0.13608-0.007,0.40284-0.0215,0.80029-0.0143,0.39747-0.0215,0.74659-0.0215,1.0474-0.00001,1.0313,0.0143,2.7321,0.043,5.1025z"/>
   <path id="path6547" d="m156.9,87.996-2.0625,0c0.1289-2.3633,0.19336-5.0345,0.19336-8.0137,0-2.8932-0.10384-5.2601-0.31153-7.1006l2.1807-0.10742c-0.13607,1.9479-0.20411,4.3506-0.2041,7.208-0.00001,2.9434,0.068,5.6146,0.2041,8.0137z"/>
   <path id="path6549" d="m168.19,77.79c-0.00001,0.45834-0.5407,1.9193-1.6221,4.3828-1.2389,2.8145-2.0088,4.7982-2.3096,5.9512-0.49415,1.8691-0.95248,3.0579-1.375,3.5664-0.57292,0.70182-1.5934,1.0527-3.0615,1.0527l-0.0859-1.5039c0.89518-0.000003,1.64-0.30436,2.2344-0.91309,0.5944-0.60872,0.8916-1.3714,0.8916-2.2881,0-0.79492-0.65886-2.6855-1.9766-5.6719-1.3177-2.9863-1.9766-4.5117-1.9766-4.5762h2.2236c0,0.19337,0.45117,1.4968,1.3535,3.9102,0.90234,2.4134,1.3535,3.8994,1.3535,4.458h0.10742c0-0.46549,0.38135-1.8154,1.144-4.0498,0.76268-2.2344,1.144-3.6738,1.144-4.3184z"/>
   <path id="path6551" d="m186.87,87.996-2.2666,0c-0.00001-0.47982-0.45118-1.9873-1.3535-4.5225h-6.1982c-0.88802,2.4994-1.332,4.0068-1.332,4.5225h-2.1699c0-0.26497,0.92383-2.5548,2.7715-6.8696s2.7715-6.687,2.7715-7.1167h2.4922c-0.00001,0.42254,0.88085,2.7608,2.6426,7.0146,1.7617,4.2539,2.6426,6.5778,2.6426,6.9717zm-4.1143-5.9297c-1.683-4.2038-2.5244-6.4381-2.5244-6.7031h-0.11816c-0.00001,0.22202-0.87013,2.4564-2.6104,6.7031z"/>
   <path id="path6553" d="m196.23,86.352-0.10742,1.4395c-0.58009,0.32943-1.3571,0.49414-2.3311,0.49414-1.8548-0.000001-3.2728-0.51204-4.2539-1.5361-0.98112-1.0241-1.4717-2.2594-1.4717-3.7061,0-1.5325,0.51562-2.8503,1.5469-3.9531,1.0312-1.1029,2.3955-1.6543,4.0928-1.6543,0.8522,0.000011,1.5469,0.08595,2.084,0.25781l-0.29004,1.6865c-0.75196-0.27929-1.5146-0.41894-2.2881-0.41894-1.0169,0.000009-1.8262,0.3545-2.4277,1.0635-0.60157,0.70899-0.90235,1.597-0.90234,2.6641-0.00001,1.1602,0.35807,2.127,1.0742,2.9004,0.71614,0.77344,1.7295,1.1602,3.04,1.1602,0.53711,0.000001,1.2819-0.13249,2.2344-0.39746z"/>
   <path id="path6555" d="m206.16,86.352-0.10742,1.4395c-0.58009,0.32943-1.3571,0.49414-2.3311,0.49414-1.8548-0.000001-3.2728-0.51204-4.2539-1.5361-0.98112-1.0241-1.4717-2.2594-1.4717-3.7061,0-1.5325,0.51562-2.8503,1.5469-3.9531,1.0312-1.1029,2.3955-1.6543,4.0928-1.6543,0.8522,0.000011,1.5469,0.08595,2.084,0.25781l-0.29004,1.6865c-0.75196-0.27929-1.5146-0.41894-2.2881-0.41894-1.0169,0.000009-1.8262,0.3545-2.4277,1.0635-0.60156,0.70899-0.90235,1.597-0.90234,2.6641-0.00001,1.1602,0.35807,2.127,1.0742,2.9004,0.71614,0.77344,1.7295,1.1602,3.04,1.1602,0.5371,0.000001,1.2819-0.13249,2.2344-0.39746z"/>
   <path id="path6557" d="m217.09,81.69c-0.00001,0.30079-0.0143,0.71615-0.043,1.2461l-7.3799,0.12891c0.0716,1.0456,0.47624,1.9211,1.2139,2.6265,0.73763,0.70541,1.7152,1.0581,2.9326,1.0581,1.0885,0.000001,2.109-0.13249,3.0615-0.39746l-0.18262,1.5146c-0.70183,0.2793-1.7152,0.41894-3.04,0.41895-1.862-0.000001-3.2818-0.50846-4.2593-1.5254-0.97754-1.0169-1.4663-2.2559-1.4663-3.7168,0-1.5612,0.4458-2.9058,1.3374-4.0337s2.0894-1.6919,3.5933-1.6919c1.3822,0.000011,2.4331,0.40821,3.1528,1.2246,0.71971,0.81642,1.0796,1.8656,1.0796,3.1475zm-1.794,0.02148c-0.00001-2.0124-0.84148-3.0185-2.5244-3.0186-1.7188,0.00001-2.7321,1.0456-3.04,3.1367z"/>
   <path id="path6559" d="m221.65,87.996-2.0625,0c0.1289-2.3633,0.19335-5.0345,0.19335-8.0137,0-2.8932-0.10384-5.2601-0.31152-7.1006l2.1807-0.10742c-0.13608,1.9479-0.20411,4.3506-0.20411,7.208,0,2.9434,0.068,5.6146,0.20411,8.0137z"/>
   <path id="path6561" d="m233.41,81.69c-0.00001,0.30079-0.0143,0.71615-0.043,1.2461l-7.3799,0.12891c0.0716,1.0456,0.47623,1.9211,1.2139,2.6265,0.73762,0.70541,1.7152,1.0581,2.9326,1.0581,1.0885,0.000001,2.109-0.13249,3.0615-0.39746l-0.18262,1.5146c-0.70183,0.2793-1.7152,0.41894-3.04,0.41895-1.862-0.000001-3.2817-0.50846-4.2593-1.5254-0.97754-1.0169-1.4663-2.2559-1.4663-3.7168,0-1.5612,0.4458-2.9058,1.3374-4.0337s2.0894-1.6919,3.5933-1.6919c1.3822,0.000011,2.4331,0.40821,3.1528,1.2246,0.71972,0.81642,1.0796,1.8656,1.0796,3.1475zm-1.7939,0.02148c-0.00001-2.0124-0.84148-3.0185-2.5244-3.0186-1.7188,0.00001-2.7321,1.0456-3.04,3.1367z"/>
   <path id="path6563" d="m242.39,77.79-0.4834,1.708c-0.5586-0.222-1.0778-0.333-1.5576-0.33301-1.3464,0.000008-2.22,0.64096-2.6211,1.9229,0,3.2943,0.0215,5.5967,0.0644,6.9072h-1.9014c0.11458-2.2702,0.17187-4.0319,0.17187-5.2852,0-1.6973-0.16829-3.3229-0.50488-4.877l1.8799-0.26855c0.13607,0.78777,0.2041,1.3141,0.2041,1.5791h0.0859c0.77343-1.1387,1.6758-1.708,2.707-1.708,0.54427,0.000011,1.196,0.11818,1.9551,0.35449z"/>
   <path id="path6565" d="m251.79,87.996-1.6865,0.06445c-0.0859-0.35091-0.12891-0.68392-0.12891-0.99902h-0.10742c-0.88086,0.80208-2.0804,1.2031-3.5986,1.2031-0.82357,0-1.5326-0.2417-2.127-0.7251-0.59441-0.4834-0.89161-1.1727-0.89161-2.0679,0-1.1029,0.4655-1.9891,1.3965-2.6587,0.93098-0.66959,2.6605-1.0223,5.1885-1.0581,0.0215-0.17187,0.0322-0.36881,0.0322-0.59082-0.00001-0.88085-0.23454-1.4681-0.70361-1.7617-0.46908-0.29361-1.1799-0.44042-2.1323-0.44043-1.1244,0.000009-2.2308,0.13966-3.3193,0.41894l0.18262-1.4824c1.0742-0.30793,2.3096-0.4619,3.706-0.46191,1.2747,0.000011,2.2594,0.26319,2.9541,0.78955,0.69465,0.52638,1.042,1.4233,1.042,2.6909-0.00001,0.3366-0.0161,0.94711-0.0483,1.8315-0.0322,0.88444-0.0483,1.4735-0.0483,1.7671-0.00001,1.3034,0.0967,2.4635,0.29004,3.4805zm-1.9014-2.084c-0.0358-1.0885-0.0537-2.0661-0.0537-2.9326-1.3464,0.000005-2.3704,0.10026-3.0723,0.30078-1.1745,0.35808-1.7617,1.042-1.7617,2.0518,0,0.97396,0.6875,1.4609,2.0625,1.4609,1.1816,0.000001,2.1234-0.29362,2.8252-0.88086z"/>
   <path id="path6567" d="m260.4,86.513-0.12891,1.3965c-0.56576,0.20768-1.0993,0.31152-1.6006,0.31152-1.2891-0.000001-2.1699-0.32764-2.6426-0.98291-0.47266-0.65527-0.70899-1.828-0.70899-3.5181,0-1.0957,0.007-2.5244,0.0215-4.2861-0.40105,0.000009-0.99187,0.02149-1.7725,0.06445l0.0645-1.5576c0.68033,0.04298,1.2891,0.06446,1.8262,0.06445,0-0.42968,0.0358-1.4502,0.10742-3.0615l1.6865-0.17188c-0.12174,1.5039-0.18262,2.5817-0.18261,3.2334,0.70182,0.00001,1.7331-0.0358,3.0938-0.10742l-0.0752,1.6006c-1.2891-0.04296-2.3239-0.06444-3.1045-0.06445-0.0143,1.0814-0.0215,2.2988-0.0215,3.6523-0.00001,1.4753,0.15575,2.451,0.46728,2.9272,0.31152,0.47624,0.88981,0.71436,1.7349,0.71436,0.27929,0.000001,0.69108-0.07161,1.2354-0.21484z"/>
   <path id="path6569" d="m271.23,81.69c-0.00001,0.30079-0.0143,0.71615-0.043,1.2461l-7.3799,0.12891c0.0716,1.0456,0.47623,1.9211,1.2139,2.6265,0.73762,0.70541,1.7152,1.0581,2.9326,1.0581,1.0885,0.000001,2.109-0.13249,3.0615-0.39746l-0.18262,1.5146c-0.70183,0.2793-1.7152,0.41894-3.04,0.41895-1.862-0.000001-3.2817-0.50846-4.2593-1.5254-0.97754-1.0169-1.4663-2.2559-1.4663-3.7168,0-1.5612,0.4458-2.9058,1.3374-4.0337s2.0894-1.6919,3.5933-1.6919c1.3822,0.000011,2.4331,0.40821,3.1528,1.2246,0.71972,0.81642,1.0796,1.8656,1.0796,3.1475zm-1.7939,0.02148c-0.00001-2.0124-0.84148-3.0185-2.5244-3.0186-1.7188,0.00001-2.7321,1.0456-3.04,3.1367z"/>
   <path id="path6571" d="m282.98,87.985-1.6006,0.05371c-0.0573-0.30794-0.086-0.63379-0.0859-0.97754h-0.11816c-0.75197,0.81641-1.8692,1.2246-3.3516,1.2246-1.3607-0.000001-2.4438-0.49414-3.2495-1.4824-0.80566-0.98828-1.2085-2.1807-1.2085-3.5771-0.00001-1.5827,0.44759-2.9469,1.3428-4.0928,0.89518-1.1458,2.1556-1.7187,3.7812-1.7188,1.1602,0.000011,1.9909,0.23634,2.4922,0.70898h0.0859c0-1.776-0.0501-3.5198-0.15039-5.2314l2.041-0.07519c-0.13608,1.819-0.20411,4.2002-0.2041,7.1436-0.00001,2.9935,0.0752,5.6683,0.22558,8.0244zm-1.7295-2.1162c-0.00001-2.2272-0.0609-4.3721-0.18262-6.4346-0.58008-0.47981-1.3034-0.71972-2.1699-0.71973-1.2103,0.000009-2.1162,0.40284-2.7178,1.2085-0.60157,0.80567-0.90235,1.8172-0.90234,3.0347-0.00001,1.0885,0.28466,2.0052,0.854,2.75,0.56933,0.74479,1.3589,1.1172,2.3686,1.1172,1.2676,0.000001,2.1842-0.31868,2.75-0.95605z"/>
   <path id="path6573" d="m299.72,86.416-0.0644,1.5791-8.4541,0c0.0859-1.7689,0.1289-4.2181,0.12891-7.3477-0.00001-2.6927-0.043-4.9056-0.12891-6.6387h1.998c-0.086,1.4466-0.12891,3.6595-0.12891,6.6387,0,2.4492-0.0394,4.4115-0.11816,5.8867,2.1484,0.000002,4.4043-0.03939,6.7676-0.11816z"/>
   <path id="path6575" d="m309.46,87.996-1.6865,0.06445c-0.0859-0.35091-0.12891-0.68392-0.1289-0.99902h-0.10743c-0.88086,0.80208-2.0804,1.2031-3.5986,1.2031-0.82357,0-1.5326-0.2417-2.127-0.7251s-0.8916-1.1727-0.8916-2.0679c0-1.1029,0.46549-1.9891,1.3965-2.6587,0.93099-0.66959,2.6605-1.0223,5.1885-1.0581,0.0215-0.17187,0.0322-0.36881,0.0322-0.59082,0-0.88085-0.23454-1.4681-0.70361-1.7617-0.46908-0.29361-1.1799-0.44042-2.1323-0.44043-1.1244,0.000009-2.2308,0.13966-3.3193,0.41894l0.18262-1.4824c1.0742-0.30793,2.3096-0.4619,3.706-0.46191,1.2747,0.000011,2.2594,0.26319,2.9541,0.78955,0.69466,0.52638,1.042,1.4233,1.042,2.6909-0.00001,0.3366-0.0161,0.94711-0.0483,1.8315-0.0322,0.88444-0.0483,1.4735-0.0483,1.7671-0.00001,1.3034,0.0967,2.4635,0.29004,3.4805zm-1.9014-2.084c-0.0358-1.0885-0.0537-2.0661-0.0537-2.9326-1.3464,0.000005-2.3704,0.10026-3.0723,0.30078-1.1745,0.35808-1.7617,1.042-1.7617,2.0518,0,0.97396,0.6875,1.4609,2.0625,1.4609,1.1816,0.000001,2.1234-0.29362,2.8252-0.88086z"/>
   <path id="path6577" d="m318.66,77.79-0.4834,1.708c-0.5586-0.222-1.0778-0.333-1.5576-0.33301-1.3464,0.000008-2.22,0.64096-2.6211,1.9229,0,3.2943,0.0215,5.5967,0.0645,6.9072h-1.9014c0.11458-2.2702,0.17187-4.0319,0.17187-5.2852,0-1.6973-0.16829-3.3229-0.50488-4.877l1.8799-0.26855c0.13607,0.78777,0.2041,1.3141,0.2041,1.5791h0.0859c0.77343-1.1387,1.6758-1.708,2.707-1.708,0.54427,0.000011,1.196,0.11818,1.9551,0.35449z"/>
   <path id="path6579" d="m330.09,76.437-0.17188,1.4824c-1.332,0.00001-2.0661,0.21485-2.2022,0.64453v0.10742c0.45833,0.5586,0.68749,1.196,0.6875,1.9121-0.00001,1.1172-0.36703,2.0392-1.1011,2.7661-0.73406,0.72689-1.8674,1.0903-3.3999,1.0903-0.68035,0.000003-1.221-0.07161-1.6221-0.21484-0.35092,0.25065-0.52637,0.56218-0.52637,0.93457,0,0.45834,0.20768,0.7627,0.62305,0.91309,0.52994,0.20052,1.6364,0.30078,3.3193,0.30078,2.7214,0.000002,4.082,0.90234,4.082,2.707-0.00001,1.2891-0.52995,2.3561-1.5898,3.2012-1.0599,0.84505-2.4313,1.2676-4.1143,1.2676-1.7259-0.000006-2.9559-0.31332-3.6899-0.93994-0.73405-0.62663-1.1011-1.3804-1.1011-2.2612,0-0.80208,0.18082-1.4466,0.54248-1.9336,0.36165-0.48698,0.81103-0.78776,1.3481-0.90234v-0.09668c-0.56575-0.27214-0.84863-0.79492-0.84863-1.5684,0-0.70182,0.35807-1.3177,1.0742-1.8477v-0.08594c-0.37956-0.18619-0.74121-0.5013-1.085-0.94531-0.34375-0.444-0.51563-0.99544-0.51563-1.6543,0-1.1387,0.37598-2.0661,1.1279-2.7822,0.75195-0.71614,1.8405-1.0742,3.2656-1.0742,1.1673,0.00001,2.084,0.21127,2.75,0.63379h0.11816c0.22916-1.2103,0.83072-1.8154,1.8047-1.8154,0.52994,0.000012,0.93814,0.05372,1.2246,0.16113zm-1.9228,13.374c-0.00001-0.67318-0.24529-1.1476-0.73584-1.4233-0.49057-0.27572-1.4126-0.41358-2.7661-0.41358-0.91667,0-1.7546-0.04297-2.5137-0.12891-0.8737,0.42253-1.3106,1.042-1.3106,1.8584,0,1.7474,1.1458,2.6211,3.4375,2.6211,1.196-0.000004,2.1431-0.23275,2.8413-0.69824,0.69824-0.4655,1.0474-1.0706,1.0474-1.8154zm-1.4932-8.7871c-0.00001-0.78775-0.24887-1.3911-0.74658-1.8101-0.49773-0.41894-1.1297-0.62841-1.896-0.62842-0.72331,0.00001-1.3284,0.20232-1.8154,0.60693-0.48698,0.40463-0.73047,0.97934-0.73046,1.7241-0.00001,0.7806,0.24885,1.375,0.74658,1.7832,0.49771,0.40821,1.1369,0.61231,1.9175,0.6123,0.71614,0.000005,1.3159-0.19873,1.7993-0.59619s0.72509-0.96142,0.7251-1.6919z"/>
   <path id="path6581" d="m340.66,81.69c-0.00001,0.30079-0.0143,0.71615-0.043,1.2461l-7.3799,0.12891c0.0716,1.0456,0.47623,1.9211,1.2139,2.6265,0.73762,0.70541,1.7152,1.0581,2.9326,1.0581,1.0885,0.000001,2.109-0.13249,3.0615-0.39746l-0.18262,1.5146c-0.70183,0.2793-1.7152,0.41894-3.04,0.41895-1.862-0.000001-3.2817-0.50846-4.2593-1.5254-0.97754-1.0169-1.4663-2.2559-1.4663-3.7168,0-1.5612,0.4458-2.9058,1.3374-4.0337s2.0894-1.6919,3.5933-1.6919c1.3822,0.000011,2.4331,0.40821,3.1528,1.2246,0.71972,0.81642,1.0796,1.8656,1.0796,3.1475zm-1.7939,0.02148c-0.00001-2.0124-0.84148-3.0185-2.5244-3.0186-1.7188,0.00001-2.7321,1.0456-3.04,3.1367z"/>
   <path id="path6583" d="m346.88,81.754-0.12891,1.3857-4.5977,0.15039,0.0967-1.375z"/>
   <path id="path6585" d="m355.52,85.084c-0.00001,2.0911-1.3356,3.1367-4.0068,3.1367-1.1816-0.000001-2.2845-0.11816-3.3086-0.35449l0.333-1.5791c0.93099,0.35807,1.9408,0.53711,3.0293,0.53711,1.5612,0.000001,2.3418-0.44401,2.3418-1.332-0.00001-0.42968-0.17367-0.77164-0.521-1.0259-0.34734-0.25423-0.92204-0.5389-1.7241-0.854-1.0169-0.40104-1.7546-0.78776-2.2129-1.1602-0.67318-0.55143-1.0098-1.2174-1.0098-1.998,0-0.8164,0.30795-1.5164,0.92383-2.1001,0.61588-0.58365,1.554-0.87548,2.8145-0.87549,1.2318,0.000011,2.22,0.10385,2.9648,0.31152l-0.33301,1.5469c-0.77344-0.30793-1.6686-0.4619-2.6856-0.46191-1.375,0.000009-2.0625,0.39747-2.0625,1.1924,0,0.40105,0.15397,0.7251,0.46192,0.97217,0.30794,0.24708,0.9095,0.54607,1.8047,0.89697,0.96679,0.37956,1.6829,0.75196,2.1484,1.1172,0.69466,0.56576,1.042,1.2425,1.042,2.0303z"/>
   <path id="path6587" d="m365.75,86.352-0.10742,1.4395c-0.58009,0.32943-1.3571,0.49414-2.3311,0.49414-1.8548-0.000001-3.2728-0.51204-4.2539-1.5361-0.98113-1.0241-1.4717-2.2594-1.4717-3.7061-0.00001-1.5325,0.51562-2.8503,1.5469-3.9531,1.0312-1.1029,2.3955-1.6543,4.0928-1.6543,0.85221,0.000011,1.5469,0.08595,2.084,0.25781l-0.29004,1.6865c-0.75196-0.27929-1.5147-0.41894-2.2881-0.41894-1.0169,0.000009-1.8262,0.3545-2.4277,1.0635-0.60157,0.70899-0.90235,1.597-0.90234,2.6641-0.00001,1.1602,0.35807,2.127,1.0742,2.9004,0.71615,0.77344,1.7295,1.1602,3.04,1.1602,0.53711,0.000001,1.2819-0.13249,2.2344-0.39746z"/>
   <path id="path6589" d="m375.93,87.996-1.6865,0.06445c-0.086-0.35091-0.12892-0.68392-0.12891-0.99902h-0.10742c-0.88087,0.80208-2.0804,1.2031-3.5986,1.2031-0.82357,0-1.5326-0.2417-2.127-0.7251s-0.8916-1.1727-0.8916-2.0679c0-1.1029,0.4655-1.9891,1.3965-2.6587,0.93098-0.66959,2.6605-1.0223,5.1885-1.0581,0.0215-0.17187,0.0322-0.36881,0.0322-0.59082-0.00001-0.88085-0.23454-1.4681-0.70361-1.7617-0.46908-0.29361-1.1799-0.44042-2.1323-0.44043-1.1244,0.000009-2.2308,0.13966-3.3193,0.41894l0.18261-1.4824c1.0742-0.30793,2.3096-0.4619,3.7061-0.46191,1.2747,0.000011,2.2594,0.26319,2.9541,0.78955,0.69465,0.52638,1.042,1.4233,1.042,2.6909-0.00001,0.3366-0.0161,0.94711-0.0483,1.8315-0.0322,0.88444-0.0484,1.4735-0.0483,1.7671-0.00001,1.3034,0.0967,2.4635,0.29004,3.4805zm-1.9014-2.084c-0.0358-1.0885-0.0537-2.0661-0.0537-2.9326-1.3464,0.000005-2.3704,0.10026-3.0723,0.30078-1.1745,0.35808-1.7617,1.042-1.7617,2.0518,0,0.97396,0.6875,1.4609,2.0625,1.4609,1.1816,0.000001,2.1234-0.29362,2.8252-0.88086z"/>
   <path id="path6591" d="m380.72,87.996-2.0625,0c0.1289-2.3633,0.19336-5.0345,0.19336-8.0137,0-2.8932-0.10385-5.2601-0.31153-7.1006l2.1807-0.10742c-0.13607,1.9479-0.20411,4.3506-0.2041,7.208-0.00001,2.9434,0.068,5.6146,0.2041,8.0137z"/>
   <path id="path6593" d="m392.48,81.69c-0.00001,0.30079-0.0143,0.71615-0.043,1.2461l-7.3799,0.12891c0.0716,1.0456,0.47624,1.9211,1.2139,2.6265,0.73762,0.70541,1.7152,1.0581,2.9326,1.0581,1.0885,0.000001,2.109-0.13249,3.0615-0.39746l-0.18262,1.5146c-0.70183,0.2793-1.7152,0.41894-3.04,0.41895-1.862-0.000001-3.2817-0.50846-4.2593-1.5254-0.97755-1.0169-1.4663-2.2559-1.4663-3.7168,0-1.5612,0.4458-2.9058,1.3374-4.0337s2.0894-1.6919,3.5933-1.6919c1.3822,0.000011,2.4331,0.40821,3.1528,1.2246,0.71972,0.81642,1.0796,1.8656,1.0796,3.1475zm-1.7939,0.02148c-0.00001-2.0124-0.84148-3.0185-2.5244-3.0186-1.7188,0.00001-2.7321,1.0456-3.04,3.1367z"/>
   <path id="path6595" d="m415.32,87.996-2.0195,0c-0.00001-1.597-0.11102-3.9066-0.33301-6.9287-0.22202-3.0221-0.34018-4.834-0.35449-5.4355h-0.10742c-0.71616,2.3275-1.6239,4.8537-2.7231,7.5786-1.0993,2.7249-1.6489,4.3202-1.6489,4.7856h-1.4502c0-0.5013-0.51205-2.1252-1.5361-4.8716-1.0241-2.7464-1.6722-4.5851-1.9443-5.5161-0.27214-0.93098-0.45834-1.5898-0.5586-1.9766h-0.10742c-0.0215,0.98113-0.16293,2.9613-0.42432,5.9404-0.26139,2.9792-0.39209,5.1204-0.39209,6.4238h-1.8476c0-0.07161,0.24349-2.0428,0.73047-5.9136,0.48697-3.8708,0.73046-6.5617,0.73047-8.0728h2.8252c-0.00001,0.78777,0.57291,2.7572,1.7188,5.9082,1.1458,3.151,1.7187,5.0596,1.7188,5.7256h0.10742c-0.00001-0.66601,0.64452-2.5799,1.9336-5.7417,1.289-3.1618,1.9336-5.1258,1.9336-5.8921h2.7607c-0.00001,1.5111,0.1647,4.1895,0.49414,8.0352,0.32941,3.8457,0.49413,5.8294,0.49414,5.9512z"/>
   <path id="path6597" d="m428.33,82.581c-0.00001,1.8333-0.52638,3.2638-1.5791,4.2915s-2.2917,1.5415-3.7168,1.5415c-1.332,0-2.4761-0.45475-3.4321-1.3643-0.95606-0.9095-1.4341-2.1914-1.4341-3.8457,0-1.8476,0.52816-3.2907,1.5845-4.3291s2.297-1.5576,3.7222-1.5576c1.332,0.000011,2.4743,0.46013,3.4268,1.3804,0.95246,0.92026,1.4287,2.2147,1.4287,3.8833zm-1.8584,0.37598c-0.00001-1.1172-0.28109-2.1108-0.84326-2.981-0.56218-0.87011-1.3625-1.3052-2.4009-1.3052-1.0312,0.000009-1.8244,0.41179-2.3794,1.2354-0.55502,0.82357-0.83252,1.7796-0.83252,2.8682,0,1.1244,0.28108,2.1198,0.84326,2.9863,0.56217,0.86654,1.366,1.2998,2.4116,1.2998,1.0312,0.000001,1.8226-0.41357,2.374-1.2407,0.55142-0.82715,0.82713-1.7814,0.82714-2.8628z"/>
   <path id="path6599" d="m432.88,87.996-2.0625,0c0.1289-2.3633,0.19336-5.0345,0.19336-8.0137,0-2.8932-0.10384-5.2601-0.31152-7.1006l2.1807-0.10742c-0.13607,1.9479-0.2041,4.3506-0.2041,7.208,0,2.9434,0.068,5.6146,0.2041,8.0137z"/>
   <path id="path6601" d="m444.65,81.69c-0.00001,0.30079-0.0143,0.71615-0.043,1.2461l-7.3799,0.12891c0.0716,1.0456,0.47624,1.9211,1.2139,2.6265,0.73763,0.70541,1.7152,1.0581,2.9326,1.0581,1.0885,0.000001,2.109-0.13249,3.0615-0.39746l-0.18262,1.5146c-0.70183,0.2793-1.7152,0.41894-3.04,0.41895-1.862-0.000001-3.2818-0.50846-4.2593-1.5254-0.97754-1.0169-1.4663-2.2559-1.4663-3.7168,0-1.5612,0.4458-2.9058,1.3374-4.0337s2.0894-1.6919,3.5933-1.6919c1.3822,0.000011,2.4331,0.40821,3.1528,1.2246,0.71971,0.81642,1.0796,1.8656,1.0796,3.1475zm-1.794,0.02148c-0.00001-2.0124-0.84148-3.0185-2.5244-3.0186-1.7188,0.00001-2.7321,1.0456-3.04,3.1367z"/>
   <path id="path6603" d="m454.95,86.352-0.10742,1.4395c-0.58009,0.32943-1.3571,0.49414-2.331,0.49414-1.8548-0.000001-3.2728-0.51204-4.2539-1.5361-0.98112-1.0241-1.4717-2.2594-1.4717-3.7061,0-1.5325,0.51562-2.8503,1.5469-3.9531,1.0312-1.1029,2.3955-1.6543,4.0928-1.6543,0.85221,0.000011,1.5469,0.08595,2.084,0.25781l-0.29004,1.6865c-0.75196-0.27929-1.5146-0.41894-2.2881-0.41894-1.0169,0.000009-1.8262,0.3545-2.4277,1.0635-0.60156,0.70899-0.90234,1.597-0.90234,2.6641,0,1.1602,0.35807,2.127,1.0742,2.9004,0.71614,0.77344,1.7295,1.1602,3.04,1.1602,0.5371,0.000001,1.2819-0.13249,2.2344-0.39746z"/>
   <path id="path6605" d="m466.12,87.985-1.665,0.06445c-0.10027-0.40104-0.1504-0.73047-0.15039-0.98828h-0.10742c-0.95248,0.80208-2.1091,1.2031-3.4697,1.2031-1.2389,0-2.1395-0.29899-2.7017-0.89697-0.56218-0.59798-0.84326-1.8029-0.84326-3.6147,0-0.25781,0.007-0.64095,0.0215-1.1494,0.0143-0.50846,0.0215-0.85579,0.0215-1.042,0-1.0527-0.0609-2.2917-0.18262-3.7168l1.998-0.0752c-0.0859,1.3822-0.12891,2.5638-0.12891,3.5449,0,2.2559,0.14502,3.7258,0.43506,4.4097,0.29003,0.68392,0.94352,1.0259,1.9604,1.0259,1.1458,0.000001,2.0911-0.28646,2.8359-0.85938-0.00001-3.9818-0.0358-6.6637-0.10743-8.0459l1.9336-0.0752c-0.0573,1.3464-0.086,3.2083-0.0859,5.5859-0.00001,1.5254,0.0788,3.0687,0.23633,4.6299z"/>
   <path id="path6607" d="m470.91,87.996-2.0625,0c0.12891-2.3633,0.19336-5.0345,0.19336-8.0137,0-2.8932-0.10384-5.2601-0.31152-7.1006l2.1807-0.10742c-0.13607,1.9479-0.2041,4.3506-0.2041,7.208,0,2.9434,0.068,5.6146,0.2041,8.0137z"/>
   <path id="path6609" d="m481.93,87.996-1.6865,0.06445c-0.0859-0.35091-0.12891-0.68392-0.1289-0.99902h-0.10742c-0.88087,0.80208-2.0804,1.2031-3.5986,1.2031-0.82357,0-1.5326-0.2417-2.127-0.7251s-0.8916-1.1727-0.8916-2.0679c0-1.1029,0.46549-1.9891,1.3965-2.6587,0.93099-0.66959,2.6605-1.0223,5.1885-1.0581,0.0215-0.17187,0.0322-0.36881,0.0322-0.59082-0.00001-0.88085-0.23455-1.4681-0.70362-1.7617-0.46908-0.29361-1.1798-0.44042-2.1323-0.44043-1.1244,0.000009-2.2308,0.13966-3.3193,0.41894l0.18262-1.4824c1.0742-0.30793,2.3096-0.4619,3.7061-0.46191,1.2747,0.000011,2.2594,0.26319,2.9541,0.78955,0.69465,0.52638,1.042,1.4233,1.042,2.6909-0.00001,0.3366-0.0161,0.94711-0.0483,1.8315-0.0322,0.88444-0.0483,1.4735-0.0483,1.7671-0.00001,1.3034,0.0967,2.4635,0.29004,3.4805zm-1.9014-2.084c-0.0358-1.0885-0.0537-2.0661-0.0537-2.9326-1.3464,0.000005-2.3704,0.10026-3.0723,0.30078-1.1745,0.35808-1.7617,1.042-1.7617,2.0518-0.00001,0.97396,0.68749,1.4609,2.0625,1.4609,1.1816,0.000001,2.1234-0.29362,2.8252-0.88086z"/>
   <path id="path6611" d="m491.14,77.79-0.4834,1.708c-0.5586-0.222-1.0778-0.333-1.5576-0.33301-1.3464,0.000008-2.2201,0.64096-2.6211,1.9229,0,3.2943,0.0215,5.5967,0.0645,6.9072h-1.9014c0.11458-2.2702,0.17187-4.0319,0.17187-5.2852,0-1.6973-0.16829-3.3229-0.50488-4.877l1.8799-0.26855c0.13607,0.78777,0.2041,1.3141,0.20411,1.5791h0.0859c0.77344-1.1387,1.6758-1.708,2.707-1.708,0.54427,0.000011,1.196,0.11818,1.9551,0.35449z"/>
   <path id="path6613" d="m508.9,80.498c-0.00001,2.0339-0.64992,3.8171-1.9497,5.3496-1.2998,1.5326-3.092,2.2988-5.3765,2.2988-0.7448,0-1.9873-0.05013-3.7275-0.15039,0.10742-2.22,0.16113-4.6693,0.16113-7.3477,0-2.5208-0.0537-4.7337-0.16113-6.6387h1.1816c0.28645,0.000014,0.7233-0.01073,1.3106-0.03223,0.58723-0.02147,0.97395-0.03221,1.1602-0.03223,2.528,0.000014,4.3936,0.62127,5.5967,1.8638s1.8047,2.8055,1.8047,4.689zm-1.8691,0.4834c-0.00001-1.5898-0.50669-2.9183-1.52-3.9854-1.0134-1.067-2.5799-1.6006-4.6997-1.6006-0.30078,0.000012-0.71257,0.03582-1.2354,0.10742,0.0573,1.6686,0.0859,3.3838,0.0859,5.1455-0.00001,1.9336,0.0394,3.8958,0.11816,5.8867,0.57291,0.11458,1.1244,0.17188,1.6543,0.17188,1.8906,0.000001,3.296-0.56038,4.2163-1.6812,0.92023-1.1208,1.3804-2.4689,1.3804-4.0444z"/>
   <path id="path6615" d="m519.71,77.79c-0.00001,0.45834-0.5407,1.9193-1.6221,4.3828-1.2389,2.8145-2.0088,4.7982-2.3096,5.9512-0.49414,1.8691-0.95248,3.0579-1.375,3.5664-0.57292,0.70182-1.5934,1.0527-3.0615,1.0527l-0.0859-1.5039c0.89518-0.000003,1.64-0.30436,2.2344-0.91309,0.59439-0.60872,0.89159-1.3714,0.8916-2.2881-0.00001-0.79492-0.65886-2.6855-1.9766-5.6719-1.3177-2.9863-1.9766-4.5117-1.9766-4.5762h2.2236c0,0.19337,0.45117,1.4968,1.3535,3.9102,0.90234,2.4134,1.3535,3.8994,1.3535,4.458h0.10742c-0.00001-0.46549,0.38134-1.8154,1.144-4.0498,0.76269-2.2344,1.144-3.6738,1.144-4.3184z"/>
   <path id="path6617" d="m530.7,87.996-1.9551,0c0.15754-1.8835,0.23632-3.9388,0.23633-6.166-0.00001-1.1029-0.2238-1.8566-0.67139-2.2612-0.4476-0.40461-1.0868-0.60692-1.9175-0.60693-1.0169,0.000009-1.9551,0.36882-2.8144,1.1064,0,2.4421,0.0143,5.0846,0.043,7.9277h-1.9551c0.12174-2.4349,0.18262-4.1966,0.18262-5.2852,0-1.6758-0.15756-3.3014-0.47266-4.877l1.8906-0.26855,0.2041,1.3105h0.0859c1.0599-0.95963,2.195-1.4394,3.4053-1.4395,1.1888,0.000011,2.109,0.26319,2.7607,0.78955,0.65168,0.52638,0.97753,1.4627,0.97754,2.8091-0.00001,0.13608-0.007,0.40463-0.0215,0.80566-0.0143,0.40105-0.0215,0.6696-0.0215,0.80566-0.00001,1.196,0.0143,2.9792,0.043,5.3496z"/>
   <path id="path6619" d="m541.57,87.996-1.6865,0.06445c-0.0859-0.35091-0.12891-0.68392-0.12891-0.99902h-0.10742c-0.88086,0.80208-2.0804,1.2031-3.5986,1.2031-0.82357,0-1.5326-0.2417-2.127-0.7251-0.59441-0.4834-0.89161-1.1727-0.89161-2.0679,0-1.1029,0.4655-1.9891,1.3965-2.6587,0.93098-0.66959,2.6605-1.0223,5.1885-1.0581,0.0215-0.17187,0.0322-0.36881,0.0322-0.59082-0.00001-0.88085-0.23454-1.4681-0.70361-1.7617-0.46908-0.29361-1.1799-0.44042-2.1323-0.44043-1.1244,0.000009-2.2308,0.13966-3.3193,0.41894l0.18262-1.4824c1.0742-0.30793,2.3096-0.4619,3.706-0.46191,1.2747,0.000011,2.2594,0.26319,2.9541,0.78955,0.69465,0.52638,1.042,1.4233,1.042,2.6909-0.00001,0.3366-0.0161,0.94711-0.0483,1.8315-0.0322,0.88444-0.0484,1.4735-0.0483,1.7671-0.00001,1.3034,0.0967,2.4635,0.29004,3.4805zm-1.9014-2.084c-0.0358-1.0885-0.0537-2.0661-0.0537-2.9326-1.3464,0.000005-2.3704,0.10026-3.0723,0.30078-1.1745,0.35808-1.7617,1.042-1.7617,2.0518,0,0.97396,0.6875,1.4609,2.0625,1.4609,1.1816,0.000001,2.1234-0.29362,2.8252-0.88086z"/>
   <path id="path6621" d="m557.78,81.776c-0.00001-1.1458-0.19874-1.9031-0.59619-2.272-0.39747-0.36881-1.051-0.55321-1.9604-0.55322-0.76628,0.000009-1.5576,0.37598-2.374,1.1279-0.0287,0.8737-0.043,1.7295-0.043,2.5674-0.00001,1.196,0.0215,2.9792,0.0644,5.3496h-1.9551c0.15754-2.041,0.23632-4.1143,0.23632-6.2197,0-1.1458-0.19873-1.9031-0.59619-2.272-0.39747-0.36881-1.033-0.55321-1.9067-0.55322-0.89518,0.000009-1.7331,0.37598-2.5137,1.1279,0,2.2702,0.0143,4.9092,0.043,7.917h-1.9551c0.13607-2.4349,0.2041-4.1966,0.20411-5.2852-0.00001-1.6543-0.16114-3.2799-0.4834-4.877l1.8906-0.26855,0.19336,1.2998h0.10742c0.93099-0.95246,1.9658-1.4287,3.1045-1.4287,1.6972,0.000011,2.7894,0.47625,3.2764,1.4287h0.11817c1.0814-0.95246,2.1484-1.4287,3.2012-1.4287,1.2031,0.000011,2.1126,0.26498,2.7285,0.79492,0.61587,0.52996,0.92382,1.4645,0.92383,2.8037-0.00001,0.13608-0.007,0.40463-0.0215,0.80566-0.0143,0.40105-0.0215,0.6696-0.0215,0.80566-0.00001,1.196,0.0143,2.9792,0.043,5.3496h-1.9551c0.1647-1.8763,0.24706-3.9495,0.24707-6.2197z"/>
   <path id="path6623" d="m564.24,87.996-1.9443,0c0.10026-1.4323,0.15039-3.0687,0.15039-4.9092,0-2.0697-0.12532-3.8063-0.37597-5.21l2.1484-0.29004c-0.0859,1.4968-0.12891,3.3301-0.1289,5.5-0.00001,1.7188,0.0501,3.3551,0.15039,4.9092zm0.45117-13.428c0,0.36525-0.11817,0.68214-0.35449,0.95068-0.23633,0.26857-0.56934,0.40284-0.99902,0.40283-0.36524,0.000012-0.64991-0.11636-0.85401-0.34912-0.2041-0.23274-0.30615-0.51382-0.30615-0.84326,0-0.35806,0.12174-0.66958,0.36523-0.93457,0.24349-0.26496,0.58008-0.39745,1.0098-0.39746,0.35091,0.000014,0.62841,0.11639,0.83252,0.34912,0.2041,0.23276,0.30615,0.50669,0.30615,0.82178z"/>
   <path id="path6625" d="m574.92,86.352-0.10742,1.4395c-0.58009,0.32943-1.3571,0.49414-2.331,0.49414-1.8548-0.000001-3.2728-0.51204-4.2539-1.5361-0.98112-1.0241-1.4717-2.2594-1.4717-3.7061,0-1.5325,0.51562-2.8503,1.5469-3.9531,1.0312-1.1029,2.3955-1.6543,4.0928-1.6543,0.85221,0.000011,1.5469,0.08595,2.084,0.25781l-0.29004,1.6865c-0.75196-0.27929-1.5146-0.41894-2.2881-0.41894-1.0169,0.000009-1.8262,0.3545-2.4277,1.0635-0.60156,0.70899-0.90234,1.597-0.90234,2.6641,0,1.1602,0.35807,2.127,1.0742,2.9004,0.71614,0.77344,1.7295,1.1602,3.04,1.1602,0.5371,0.000001,1.2819-0.13249,2.2344-0.39746z"/>
   <path id="path6627" d="m583.86,85.084c-0.00001,2.0911-1.3356,3.1367-4.0068,3.1367-1.1816-0.000001-2.2845-0.11816-3.3086-0.35449l0.33301-1.5791c0.93099,0.35807,1.9408,0.53711,3.0293,0.53711,1.5612,0.000001,2.3418-0.44401,2.3418-1.332-0.00001-0.42968-0.17368-0.77164-0.521-1.0259-0.34734-0.25423-0.92204-0.5389-1.7241-0.854-1.0169-0.40104-1.7546-0.78776-2.2129-1.1602-0.67318-0.55143-1.0098-1.2174-1.0098-1.998,0-0.8164,0.30794-1.5164,0.92383-2.1001,0.61588-0.58365,1.554-0.87548,2.8144-0.87549,1.2318,0.000011,2.22,0.10385,2.9648,0.31152l-0.33301,1.5469c-0.77345-0.30793-1.6686-0.4619-2.6856-0.46191-1.375,0.000009-2.0625,0.39747-2.0625,1.1924,0,0.40105,0.15397,0.7251,0.46192,0.97217,0.30794,0.24708,0.9095,0.54607,1.8047,0.89697,0.96679,0.37956,1.6829,0.75196,2.1484,1.1172,0.69465,0.56576,1.042,1.2425,1.042,2.0303z"/>
  </g>
  <path id="path6498" fill="#33767d" d="m138.72,1014.9-5.1953,0c0.18227-6.3073,0.27341-11.958,0.27344-16.954h-16.379c-0.00001,4.0474,0.0911,9.6984,0.27344,16.954h-5.1953c0.2552-6.6536,0.3828-12.888,0.38281-18.704-0.00001-6.0885-0.12761-11.721-0.38281-16.898h5.1953c-0.21876,5.2136-0.32813,10.281-0.32812,15.203h16.488c-0.00003-3.9557-0.1094-9.0234-0.32813-15.203h5.1953c-0.27346,5.0677-0.41018,10.701-0.41015,16.898-0.00003,6.8,0.13669,13.034,0.41015,18.704z"/>
  <path id="path6500" fill="#33767d" d="m178.1,1014.9-5.7695,0c-0.00003-1.2213-1.1485-5.0586-3.4453-11.512h-15.777c-2.2604,6.362-3.3906,10.199-3.3906,11.512h-5.5234c0-0.6744,2.3516-6.5032,7.0547-17.487,4.7031-10.983,7.0547-17.021,7.0547-18.115h6.3438c-0.00002,1.0756,2.2422,7.0274,6.7266,17.855,4.4843,10.829,6.7265,16.744,6.7266,17.747zm-10.473-15.094c-4.2839-10.7-6.4258-16.388-6.4258-17.062h-0.30078c-0.00002,0.56514-2.2149,6.2526-6.6445,17.062z"/>
  <path id="path6502" fill="#33767d" d="m205.28,1010.9-0.16406,4.0195-21.52,0c0.21874-4.5026,0.32812-10.737,0.32812-18.704,0-6.8541-0.10938-12.487-0.32812-16.898h5.0859c-0.21876,3.6823-0.32814,9.3151-0.32813,16.898-0.00001,6.2349-0.10027,11.23-0.30078,14.985,5.4687,0,11.211-0.1003,17.227-0.3008z"/>
  <path id="path6504" fill="#33767d" d="m249.16,1014.9-5.1406,0c-0.00004-4.0651-0.28259-9.944-0.84766-17.637-0.56514-7.6927-0.86592-12.305-0.90234-13.836h-0.27344c-1.823,5.9245-4.1335,12.355-6.9316,19.292-2.7982,6.9362-4.1973,10.997-4.1973,12.182h-3.6914c-0.00003-1.276-1.3034-5.4095-3.9102-12.4-2.6068-6.9913-4.2565-11.672-4.9492-14.041-0.69272-2.3698-1.1667-4.0468-1.4219-5.0312h-0.27344c-0.0547,2.4974-0.41473,7.5378-1.0801,15.121-0.66537,7.5838-0.99806,13.034-0.99805,16.352h-4.7031c-0.00001-0.1823,0.61978-5.1998,1.8594-15.053,1.2396-9.8528,1.8594-16.702,1.8594-20.549h7.1914c-0.00001,2.0052,1.4583,7.0183,4.375,15.039,2.9166,8.0214,4.375,12.879,4.375,14.575h0.27344c-0.00002-1.6954,1.6406-6.5671,4.9219-14.616,3.2812-8.0482,4.9218-13.047,4.9219-14.998h7.0274c-0.00005,3.8464,0.41923,10.664,1.2578,20.453,0.8385,9.7896,1.2578,14.839,1.2578,15.149z"/>
  <path id="path6506" fill="#33767d" d="m286.98,995.84c-0.00004,5.1775-1.6543,9.7167-4.9629,13.618-3.3086,3.901-7.8705,5.8515-13.686,5.8515-1.8958,0-5.0586-0.1276-9.4883-0.3828,0.27343-5.651,0.41015-11.885,0.41015-18.704,0-6.4166-0.13672-12.049-0.41015-16.898h3.0078c0.72916,0.00004,1.8411-0.0273,3.3359-0.082,1.4948-0.0546,2.4792-0.082,2.9531-0.082,6.4349,0.00004,11.184,1.5814,14.246,4.7441,3.0625,3.1628,4.5937,7.1413,4.5938,11.936zm-4.7578,1.2305c-0.00002-4.0468-1.2897-7.4284-3.8691-10.145-2.5794-2.7161-6.5671-4.0742-11.963-4.0742-0.76563,0.00004-1.8138,0.0912-3.1445,0.27344,0.14583,4.2474,0.21874,8.6133,0.21875,13.098-0.00001,4.9224,0.10025,9.9172,0.30078,14.985,1.4583,0.2917,2.862,0.4375,4.2109,0.4375,4.8125,0,8.39-1.4264,10.732-4.2793,2.3424-2.8529,3.5136-6.2846,3.5137-10.295z"/>
  <path id="path6508" fill="#33767d" d="m328.6,997.43c-0.00002,2.8074-0.81578,4.9953-2.4473,6.563-1.6315,1.5678-3.5775,2.3516-5.8379,2.3516-2.2422,0-4.1882-0.7793-5.8379-2.3379-1.6498-1.5586-2.4746-3.7328-2.4746-6.522-0.00001-2.8255,0.82486-5.0312,2.4746-6.6172,1.6497-1.5859,3.5957-2.3789,5.8379-2.3789,2.2422,0.00002,4.1836,0.78843,5.8242,2.3652s2.4609,3.7689,2.4609,6.5762z"/>
  <path id="path6510" fill="#33767d" d="m382.3,1014.9-5.1953,0c0.18226-6.3073,0.27341-11.958,0.27343-16.954h-16.379c-0.00001,4.0474,0.0911,9.6984,0.27344,16.954h-5.1953c0.25521-6.6536,0.38281-12.888,0.38282-18.704-0.00001-6.0885-0.12761-11.721-0.38282-16.898h5.1953c-0.21876,5.2136-0.32814,10.281-0.32813,15.203h16.488c-0.00002-3.9557-0.1094-9.0234-0.32812-15.203h5.1953c-0.27347,5.0677-0.41019,10.701-0.41016,16.898-0.00003,6.8,0.13669,13.034,0.41016,18.704z"/>
  <path id="path6512" fill="#33767d" d="m421.67,1014.9-5.7695,0c-0.00003-1.2213-1.1485-5.0586-3.4453-11.512h-15.777c-2.2604,6.362-3.3906,10.199-3.3906,11.512h-5.5234c0-0.6744,2.3516-6.5032,7.0547-17.487,4.7031-10.983,7.0547-17.021,7.0547-18.115h6.3438c-0.00002,1.0756,2.2422,7.0274,6.7266,17.855,4.4843,10.829,6.7265,16.744,6.7266,17.747zm-10.473-15.094c-4.2839-10.7-6.4258-16.388-6.4258-17.062h-0.30078c-0.00002,0.56514-2.2149,6.2526-6.6445,17.062z"/>
  <path id="path6514" fill="#33767d" d="m448.85,1010.9-0.16407,4.0195-21.52,0c0.21875-4.5026,0.32812-10.737,0.32813-18.704-0.00001-6.8541-0.10938-12.487-0.32813-16.898h5.0859c-0.21876,3.6823-0.32813,9.3151-0.32812,16.898-0.00001,6.2349-0.10027,11.23-0.30079,14.985,5.4687,0,11.211-0.1003,17.227-0.3008z"/>
  <path id="path6516" fill="#33767d" d="m461.43,980.06c-0.00001,2.4245-0.62892,4.6986-1.8867,6.8223s-3.181,4.3158-5.7695,6.5762l-1.6406-1.8047c2.7708-3.0989,4.1562-5.9609,4.1562-8.5859-1.5677-0.61975-2.3516-1.7682-2.3516-3.4453,0-1.0572,0.32812-1.9824,0.98438-2.7754,0.65624-0.79293,1.6315-1.1894,2.9258-1.1894,1.0573,0.00004,1.9186,0.42842,2.584,1.2852,0.66536,0.85681,0.99804,1.8959,0.99805,3.1172z"/>
  <path id="path6518" fill="#33767d" d="m484.57,1007.5c-0.00002,5.3229-3.3998,7.9844-10.199,7.9844-3.0078,0-5.8151-0.3008-8.4219-0.9024l0.84766-4.0195c2.3698,0.9114,4.9401,1.3672,7.7109,1.3672,3.974,0,5.9609-1.1302,5.9609-3.3907-0.00002-1.0937-0.44207-1.9641-1.3262-2.6113-0.88413-0.6471-2.347-1.3717-4.3887-2.1738-2.5886-1.0209-4.4662-2.0052-5.6328-2.9534-1.7136-1.4039-2.5703-3.0992-2.5703-5.0862,0-2.0781,0.78385-3.86,2.3516-5.3457,1.5677-1.4856,3.9557-2.2285,7.1641-2.2285,3.1354,0.00003,5.651,0.26435,7.5469,0.79297l-0.84765,3.9375c-1.9688-0.78383-4.2474-1.1758-6.8359-1.1758-3.5,0.00002-5.25,1.0117-5.25,3.0352-0.00001,1.0208,0.39192,1.8457,1.1758,2.4746,0.78385,0.62892,2.3151,1.39,4.5938,2.2832,2.4609,0.96624,4.2838,1.9145,5.4688,2.8442,1.7682,1.4401,2.6523,3.1628,2.6523,5.168z"/>
  <path id="path6520" fill="#33767d" d="m542.51,1014.9-5.1406,0c-0.00004-4.0651-0.28259-9.944-0.84766-17.637-0.56514-7.6927-0.86592-12.305-0.90234-13.836h-0.27344c-1.823,5.9245-4.1335,12.355-6.9316,19.292-2.7982,6.9362-4.1973,10.997-4.1973,12.182h-3.6914c-0.00003-1.276-1.3034-5.4095-3.9102-12.4-2.6068-6.9913-4.2565-11.672-4.9492-14.041-0.69272-2.3698-1.1667-4.0468-1.4219-5.0312h-0.27344c-0.0547,2.4974-0.41473,7.5378-1.0801,15.121-0.66537,7.5838-0.99806,13.034-0.99805,16.352h-4.7031c-0.00001-0.1823,0.61978-5.1998,1.8594-15.053,1.2396-9.8528,1.8594-16.702,1.8594-20.549h7.1914c-0.00001,2.0052,1.4583,7.0183,4.375,15.039,2.9166,8.0214,4.375,12.879,4.375,14.575h0.27344c-0.00002-1.6954,1.6406-6.5671,4.9219-14.616,3.2812-8.0482,4.9218-13.047,4.9219-14.998h7.0274c-0.00005,3.8464,0.41923,10.664,1.2578,20.453,0.8385,9.7896,1.2578,14.839,1.2578,15.149z"/>
  <path id="path6522" fill="#33767d" d="m580.32,995.84c-0.00004,5.1775-1.6543,9.7167-4.9629,13.618-3.3086,3.901-7.8705,5.8515-13.686,5.8515-1.8958,0-5.0586-0.1276-9.4883-0.3828,0.27343-5.651,0.41015-11.885,0.41015-18.704,0-6.4166-0.13672-12.049-0.41015-16.898h3.0078c0.72916,0.00004,1.8411-0.0273,3.3359-0.082,1.4948-0.0546,2.4792-0.082,2.9531-0.082,6.4349,0.00004,11.184,1.5814,14.246,4.7441,3.0625,3.1628,4.5937,7.1413,4.5938,11.936zm-4.7578,1.2305c-0.00002-4.0468-1.2897-7.4284-3.8691-10.145-2.5794-2.7161-6.5671-4.0742-11.963-4.0742-0.76563,0.00004-1.8138,0.0912-3.1445,0.27344,0.14583,4.2474,0.21874,8.6133,0.21875,13.098-0.00001,4.9224,0.10025,9.9172,0.30078,14.985,1.4583,0.2917,2.862,0.4375,4.2109,0.4375,4.8125,0,8.39-1.4264,10.732-4.2793,2.3424-2.8529,3.5136-6.2846,3.5137-10.295z"/>
  <path id="path6524" fill="#33767d" d="m623.58,1000.9c-0.00003,3.9377-1.1257,7.3876-3.377,10.35-2.2513,2.9622-5.3822,4.4433-9.3926,4.4433-3.3542,0-5.5599-0.6015-6.6172-1.8047h-0.27344c-0.00001,5.0677,0.0547,9.5886,0.16407,13.562h-5.1406c0.41927-4.8489,0.6289-10.837,0.62891-17.965-0.00001-8.7868-0.45574-15.586-1.3672-20.399l4.8125-0.6836,0.41016,2.707h0.27343c1.7682-2.0599,4.6302-3.0898,8.5859-3.0898,3.4818,0.00003,6.2344,1.2715,8.2578,3.8144,2.0234,2.543,3.0351,5.5645,3.0352,9.0647zm-4.8672,0.6565c-0.00002-2.6984-0.71096-5.009-2.1328-6.9321-1.4219-1.9232-3.418-2.8848-5.9883-2.8848-3.2813,0.00002-5.6328,0.99351-7.0547,2.9805,0.29166,6.1252,0.43749,11.385,0.4375,15.778,1.4766,1.2396,3.3997,1.8594,5.7695,1.8594,3.0078,0,5.2545-1.0573,6.7402-3.1719,1.4856-2.1146,2.2285-4.6576,2.2285-7.6289z"/>
  <path id="path6526" fill="#33767d" d="m650.49,1014.9-4.293,0.1641c-0.21877-0.8932-0.32814-1.7409-0.32812-2.543h-0.27344c-2.2422,2.0417-5.2956,3.0625-9.1602,3.0625-2.0964,0-3.901-0.6152-5.4141-1.8457-1.513-1.2304-2.2695-2.985-2.2695-5.2636,0-2.8073,1.1849-5.0632,3.5547-6.7677,2.3698-1.7049,6.7721-2.6026,13.207-2.6938,0.0547-0.43748,0.082-0.93878,0.082-1.5039-0.00002-2.2422-0.59703-3.737-1.791-4.4844-1.194-0.74737-3.0033-1.1211-5.4277-1.1211-2.862,0.00002-5.6784,0.35549-8.4492,1.0664l0.46484-3.7734c2.7344-0.78383,5.8789-1.1758,9.4336-1.1758,3.2448,0.00002,5.7513,0.66995,7.5195,2.0098,1.7682,1.3399,2.6523,3.6231,2.6523,6.8496-0.00002,0.85679-0.041,2.4108-0.12305,4.6626-0.082,2.2513-0.12307,3.7507-0.12304,4.4981-0.00003,3.3177,0.24607,6.2708,0.73828,8.8593zm-4.8398-5.3047c-0.0912-2.7708-0.13674-5.2591-0.13672-7.4648-3.4271,0-6.0339,0.2552-7.8203,0.7656-2.9896,0.9115-4.4844,2.6524-4.4844,5.2227-0.00001,2.4792,1.75,3.7187,5.25,3.7187,3.0078,0,5.4049-0.7474,7.1914-2.2422z"/>
  <path id="path6528" fill="#33767d" d="m677.28,1010.7-0.27343,3.6641c-1.4766,0.8385-3.4544,1.2578-5.9336,1.2578-4.7214,0-8.3307-1.3034-10.828-3.9101-2.4974-2.6068-3.7461-5.7513-3.7461-9.4337,0-3.9015,1.3125-7.2556,3.9375-10.063,2.625-2.8073,6.0976-4.2109,10.418-4.2109,2.1692,0.00002,3.9375,0.21877,5.3047,0.65625l-0.73828,4.293c-1.9141-0.71092-3.8555-1.0664-5.8242-1.0664-2.5886,0.00002-4.6484,0.90237-6.1797,2.707-1.5313,1.8047-2.2969,4.0651-2.2969,6.7817-0.00001,2.9531,0.91145,5.4141,2.7344,7.3828,1.8229,1.9688,4.4023,2.9532,7.7383,2.9532,1.3672,0,3.263-0.3373,5.6875-1.0118z"/>
  <path id="path6530" fill="#33767d" d="m706.1,1014.9-6.4258,0c-0.00003-0.638-1.7682-3.0716-5.3047-7.3007-3.6276-4.3568-5.9063-6.5353-6.8359-6.5353h-0.19141c0,3.9011,0.10026,8.5131,0.30079,13.836h-4.8125c0.23697-6.6718,0.35546-13.471,0.35546-20.399,0-7.0547-0.26432-13.079-0.79296-18.074l5.25-0.27344c-0.20053,3.9375-0.30079,11.585-0.30079,22.941h0.19141c0.60155,0.00001,2.4928-1.5358,5.6738-4.6074s4.7715-4.9264,4.7715-5.5644h6.043c-0.00002,0.58336-1.431,2.0964-4.293,4.5391-2.6797,2.2787-5.1315,4.1563-7.3555,5.6328v0.21875c2.2604,1.7139,5.168,4.6489,8.7227,8.8052,3.3359,3.9193,5.0039,6.1797,5.0039,6.7812z"/>
  <path id="path6532" fill="#33767d" d="m730.55,1014.9-4.293,0.1641c-0.21877-0.8932-0.32814-1.7409-0.32812-2.543h-0.27344c-2.2422,2.0417-5.2956,3.0625-9.1602,3.0625-2.0964,0-3.901-0.6152-5.4141-1.8457-1.513-1.2304-2.2695-2.985-2.2695-5.2636,0-2.8073,1.1849-5.0632,3.5547-6.7677,2.3698-1.7049,6.7721-2.6026,13.207-2.6938,0.0547-0.43748,0.082-0.93878,0.082-1.5039-0.00002-2.2422-0.59703-3.737-1.791-4.4844-1.194-0.74737-3.0033-1.1211-5.4277-1.1211-2.862,0.00002-5.6784,0.35549-8.4492,1.0664l0.46484-3.7734c2.7344-0.78383,5.8789-1.1758,9.4336-1.1758,3.2448,0.00002,5.7513,0.66995,7.5195,2.0098,1.7682,1.3399,2.6523,3.6231,2.6523,6.8496-0.00002,0.85679-0.041,2.4108-0.12305,4.6626-0.082,2.2513-0.12307,3.7507-0.12304,4.4981-0.00003,3.3177,0.24607,6.2708,0.73828,8.8593zm-4.8398-5.3047c-0.0912-2.7708-0.13674-5.2591-0.13672-7.4648-3.4271,0-6.0339,0.2552-7.8203,0.7656-2.9896,0.9115-4.4844,2.6524-4.4844,5.2227-0.00001,2.4792,1.75,3.7187,5.25,3.7187,3.0078,0,5.4049-0.7474,7.1914-2.2422z"/>
  <path id="path6534" fill="#33767d" d="m763.17,985.5-0.4375,3.7734c-3.3906,0.00002-5.2591,0.5469-5.6055,1.6406v0.27344c1.1666,1.4219,1.75,3.0443,1.75,4.8672-0.00002,2.8438-0.93426,5.1912-2.8027,7.0414-1.8685,1.8503-4.7533,2.7755-8.6543,2.7755-1.7318,0-3.1081-0.1823-4.1289-0.5469-0.89324,0.638-1.3399,1.431-1.3398,2.3789-0.00001,1.1667,0.52864,1.9414,1.5859,2.3242,1.349,0.5104,4.1654,0.7656,8.4492,0.7656,6.9271,0,10.391,2.2969,10.391,6.8907-0.00002,3.2812-1.349,5.9973-4.0469,8.1484-2.6979,2.151-6.1888,3.2265-10.473,3.2266-4.3932-0.0001-7.5241-0.7976-9.3926-2.3926-1.8685-1.5951-2.8027-3.5137-2.8027-5.7559,0-2.0417,0.46028-3.6823,1.3809-4.9219,0.92057-1.2395,2.0644-2.0052,3.4316-2.2968v-0.2461c-1.4401-0.6927-2.1602-2.0235-2.1602-3.9922,0-1.7865,0.91146-3.3542,2.7344-4.7032v-0.2187c-0.96615-0.474-1.8867-1.276-2.7617-2.4063s-1.3125-2.5343-1.3125-4.2114c0-2.8984,0.95703-5.2591,2.8711-7.082s4.6849-2.7344,8.3125-2.7344c2.9713,0.00003,5.3047,0.53779,7,1.6133h0.30079c0.58331-3.0807,2.1146-4.6211,4.5938-4.6211,1.3489,0.00003,2.388,0.13675,3.1172,0.41016zm-4.8945,34.043c-0.00002-1.7135-0.62437-2.9212-1.873-3.623-1.2487-0.7018-3.5957-1.0528-7.041-1.0528-2.3334,0-4.4662-0.1093-6.3984-0.3281-2.224,1.0755-3.3359,2.6524-3.3359,4.7305,0,4.4479,2.9167,6.6719,8.75,6.6719,3.0443,0,5.4551-0.5925,7.2324-1.7774s2.666-2.7252,2.666-4.6211zm-3.8008-22.368c-0.00002-2.0052-0.63348-3.541-1.9004-4.6074s-2.8757-1.5996-4.8262-1.5996c-1.8412,0.00002-3.3815,0.515-4.6211,1.5449-1.2396,1.03-1.8594,2.4929-1.8594,4.3887-0.00001,1.987,0.63345,3.5001,1.9004,4.5395,1.2669,1.0391,2.8939,1.5586,4.8809,1.5586,1.8229,0,3.3496-0.5058,4.5801-1.5175,1.2304-1.0121,1.8457-2.4478,1.8457-4.3072z"/>
  <path id="path6536" fill="#33767d" d="m790.08,998.88c-0.00002,0.76564-0.0365,1.8232-0.10937,3.1724l-18.785,0.3281c0.18229,2.6615,1.2122,4.89,3.0898,6.6856s4.3659,2.6934,7.4648,2.6934c2.7708,0,5.3685-0.3373,7.793-1.0118l-0.46485,3.8555c-1.7865,0.7109-4.3659,1.0664-7.7383,1.0664-4.7396,0-8.3535-1.2943-10.842-3.8828-2.4883-2.5885-3.7324-5.7422-3.7324-9.461,0-3.9744,1.1348-7.3969,3.4043-10.268s5.3184-4.3066,9.1465-4.3066c3.5182,0.00002,6.1933,1.0391,8.0254,3.1172,1.832,2.0782,2.748,4.7487,2.748,8.0117zm-4.5664,0.0547c-0.00002-5.1224-2.142-7.6836-6.4258-7.6836-4.375,0.00002-6.9544,2.6615-7.7383,7.9844z"/>
  <g id="g6929" transform="matrix(1.25,0,0,-1.25,5,1047.3622)">
   <path id="path6931" fill-opacity="0" d="M0,0,72,0,72,72,0,72,0,0"/>
   <g id="g6933">
    <g id="g6935" stroke-linejoin="round" clip-path="url(#clipPath6937)" stroke-opacity="0.2" fill-rule="nonzero" fill-opacity="0.2" stroke="#F00" stroke-linecap="butt" stroke-miterlimit="10" stroke-width="1" fill="#F00">
     <path id="path6941" style="stroke-dasharray:none;" d="m17.217,59.559c1.6391,0,3.2112,0.6512,4.3702,1.8102s1.8102,2.7311,1.8102,4.3702-0.6512,3.2112-1.8102,4.3702-2.7311,1.8102-4.3702,1.8102-3.2112-0.6512-4.3702-1.8102-1.8102-2.7311-1.8102-4.3702,0.6512-3.2112,1.8102-4.3702,2.7311-1.8102,4.3702-1.8102z"/>
     <path id="path6943" style="stroke-dasharray:none;" d="m17.217,50.167c1.6391,0,3.2112,0.6512,4.3702,1.8102s1.8102,2.7311,1.8102,4.3702-0.6512,3.2112-1.8102,4.3702-2.7311,1.8102-4.3702,1.8102-3.2112-0.6512-4.3702-1.8102-1.8102-2.7311-1.8102-4.3702,0.6512-3.2112,1.8102-4.3702,2.7311-1.8102,4.3702-1.8102z"/>
     <path id="path6945" style="stroke-dasharray:none;" d="m26.609,50.167c1.6391,0,3.2112,0.6512,4.3702,1.8102s1.8102,2.7311,1.8102,4.3702-0.6512,3.2112-1.8102,4.3702-2.7311,1.8102-4.3702,1.8102-3.2112-0.6512-4.3702-1.8102-1.8102-2.7311-1.8102-4.3702,0.6512-3.2112,1.8102-4.3702,2.7311-1.8102,4.3702-1.8102z"/>
    </g>
   </g>
   <g id="g6947">
    <g id="g6949" stroke-linejoin="round" clip-path="url(#clipPath6951)" stroke-opacity="0.8" fill-rule="nonzero" fill-opacity="0.8" stroke="#F00" stroke-linecap="butt" stroke-miterlimit="10" stroke-width="1" fill="#F00">
     <path id="path6955" style="stroke-dasharray:none;" d="m17.217,62.171c0.94631,0,1.854,0.37597,2.5231,1.0451,0.66914,0.66914,1.0451,1.5768,1.0451,2.5231,0,0.94631-0.37597,1.854-1.0451,2.5231-0.66914,0.66914-1.5768,1.0451-2.5231,1.0451-0.94631,0-1.854-0.37597-2.5231-1.0451-0.66914-0.66914-1.0451-1.5768-1.0451-2.5231,0-0.94631,0.37597-1.854,1.0451-2.5231,0.66914-0.66914,1.5768-1.0451,2.5231-1.0451z"/>
     <path id="path6957" style="stroke-dasharray:none;" d="m17.217,52.78c0.94631,0,1.854,0.37597,2.5231,1.0451,0.66914,0.66914,1.0451,1.5768,1.0451,2.5231,0,0.94631-0.37597,1.854-1.0451,2.5231-0.66914,0.66914-1.5768,1.0451-2.5231,1.0451-0.94631,0-1.854-0.37597-2.5231-1.0451-0.66914-0.66914-1.0451-1.5768-1.0451-2.5231,0-0.94631,0.37597-1.854,1.0451-2.5231,0.66914-0.66914,1.5768-1.0451,2.5231-1.0451z"/>
     <path id="path6959" style="stroke-dasharray:none;" d="m26.609,52.78c0.94631,0,1.854,0.37597,2.5231,1.0451,0.66914,0.66914,1.0451,1.5768,1.0451,2.5231,0,0.94631-0.37597,1.854-1.0451,2.5231-0.66914,0.66914-1.5768,1.0451-2.5231,1.0451-0.94631,0-1.854-0.37597-2.5231-1.0451-0.66914-0.66914-1.0451-1.5768-1.0451-2.5231,0-0.94631,0.37597-1.854,1.0451-2.5231,0.66914-0.66914,1.5768-1.0451,2.5231-1.0451z"/>
    </g>
   </g>
   <g id="g6961">
    <g id="g6963" clip-path="url(#clipPath6965)">
     <path id="path6969" stroke-linejoin="round" style="stroke-dasharray:none;" d="m36,59.559c1.6391,0,3.2112,0.6512,4.3702,1.8102s1.8102,2.7311,1.8102,4.3702-0.6512,3.2112-1.8102,4.3702-2.7311,1.8102-4.3702,1.8102-3.2112-0.6512-4.3702-1.8102-1.8102-2.7311-1.8102-4.3702,0.6512-3.2112,1.8102-4.3702,2.731-1.81,4.37-1.81z" stroke-opacity="0.2" fill-rule="nonzero" fill-opacity="0.2" stroke="#008000" stroke-linecap="butt" stroke-miterlimit="10" stroke-width="1" fill="#008000"/>
    </g>
   </g>
   <g id="g6971">
    <g id="g6973" clip-path="url(#clipPath6975)">
     <path id="path6979" stroke-linejoin="round" style="stroke-dasharray:none;" d="m36,62.171c0.94631,0,1.854,0.37597,2.5231,1.0451,0.66914,0.66914,1.0451,1.5768,1.0451,2.5231,0,0.94631-0.37597,1.854-1.0451,2.5231-0.669,0.669-1.577,1.045-2.523,1.045-0.94631,0-1.854-0.37597-2.5231-1.0451-0.66914-0.66914-1.0451-1.5768-1.0451-2.5231,0-0.94631,0.37597-1.854,1.0451-2.5231,0.669-0.669,1.577-1.045,2.523-1.045z" stroke-opacity="0.8" fill-rule="nonzero" fill-opacity="0.8" stroke="#008000" stroke-linecap="butt" stroke-miterlimit="10" stroke-width="1" fill="#008000"/>
    </g>
   </g>
   <g id="g6981">
    <g id="g6983" stroke-linejoin="round" clip-path="url(#clipPath6985)" stroke-opacity="0.2" fill-rule="nonzero" fill-opacity="0.2" stroke="#00008b" stroke-linecap="butt" stroke-miterlimit="10" stroke-width="1" fill="#00008b">
     <path id="path6989" style="stroke-dasharray:none;" d="m54.783,40.776c1.6391,0,3.2112,0.6512,4.3702,1.8102s1.8102,2.7311,1.8102,4.3702-0.6512,3.2112-1.8102,4.3702-2.7311,1.8102-4.3702,1.8102-3.2112-0.6512-4.3702-1.8102-1.8102-2.7311-1.8102-4.3702,0.6512-3.2112,1.8102-4.3702,2.7311-1.8102,4.3702-1.8102z"/>
     <path id="path6991" style="stroke-dasharray:none;" d="m54.783,50.167c1.6391,0,3.2112,0.6512,4.3702,1.8102s1.8102,2.7311,1.8102,4.3702-0.6512,3.2112-1.8102,4.3702-2.7311,1.8102-4.3702,1.8102-3.2112-0.6512-4.3702-1.8102-1.8102-2.7311-1.8102-4.3702,0.6512-3.2112,1.8102-4.3702,2.7311-1.8102,4.3702-1.8102z"/>
     <path id="path6993" style="stroke-dasharray:none;" d="m54.783,59.559c1.6391,0,3.2112,0.6512,4.3702,1.8102s1.8102,2.7311,1.8102,4.3702-0.6512,3.2112-1.8102,4.3702-2.7311,1.8102-4.3702,1.8102-3.2112-0.6512-4.3702-1.8102-1.8102-2.7311-1.8102-4.3702,0.6512-3.2112,1.8102-4.3702,2.7311-1.8102,4.3702-1.8102z"/>
    </g>
   </g>
   <g id="g6995">
    <g id="g6997" stroke-linejoin="round" clip-path="url(#clipPath6999)" stroke-opacity="0.8" fill-rule="nonzero" fill-opacity="0.8" stroke="#00008b" stroke-linecap="butt" stroke-miterlimit="10" stroke-width="1" fill="#00008b">
     <path id="path7003" style="stroke-dasharray:none;" d="m54.783,43.388c0.94631,0,1.854,0.37597,2.5231,1.0451,0.66914,0.66914,1.0451,1.5768,1.0451,2.5231,0,0.94631-0.37597,1.854-1.0451,2.5231-0.66914,0.66914-1.5768,1.0451-2.5231,1.0451-0.94631,0-1.854-0.37597-2.5231-1.0451-0.66914-0.66914-1.0451-1.5768-1.0451-2.5231,0-0.94631,0.37597-1.854,1.0451-2.5231,0.66914-0.66914,1.5768-1.0451,2.5231-1.0451z"/>
     <path id="path7005" style="stroke-dasharray:none;" d="m54.783,52.78c0.94631,0,1.854,0.37597,2.5231,1.0451,0.66914,0.66914,1.0451,1.5768,1.0451,2.5231,0,0.94631-0.37597,1.854-1.0451,2.5231-0.66914,0.66914-1.5768,1.0451-2.5231,1.0451-0.94631,0-1.854-0.37597-2.5231-1.0451-0.66914-0.66914-1.0451-1.5768-1.0451-2.5231,0-0.94631,0.37597-1.854,1.0451-2.5231,0.66914-0.66914,1.5768-1.0451,2.5231-1.0451z"/>
     <path id="path7007" style="stroke-dasharray:none;" d="m54.783,62.171c0.94631,0,1.854,0.37597,2.5231,1.0451,0.66914,0.66914,1.0451,1.5768,1.0451,2.5231,0,0.94631-0.37597,1.854-1.0451,2.5231-0.66914,0.66914-1.5768,1.0451-2.5231,1.0451-0.94631,0-1.854-0.37597-2.5231-1.0451-0.66914-0.66914-1.0451-1.5768-1.0451-2.5231,0-0.94631,0.37597-1.854,1.0451-2.5231,0.66914-0.66914,1.5768-1.0451,2.5231-1.0451z"/>
    </g>
   </g>
   <g id="g7009">
    <g id="g7011" stroke-linejoin="round" clip-path="url(#clipPath7013)" stroke-opacity="0.2" fill-rule="nonzero" fill-opacity="0.2" stroke="#00545c" stroke-linecap="butt" stroke-miterlimit="10" stroke-width="1" fill="#00545c">
     <path id="path7017" style="stroke-dasharray:none;" d="m36,0.080482c1.6391,0,3.2112,0.6512,4.3702,1.8102s1.8102,2.7311,1.8102,4.3702-0.6512,3.2112-1.8102,4.3702-2.7311,1.8102-4.3702,1.8102-3.2112-0.6512-4.3702-1.8102-1.8102-2.7311-1.8102-4.3702,0.6512-3.2112,1.8102-4.3702c1.159-1.1589,2.731-1.8101,4.37-1.8101z"/>
     <path id="path7019" style="stroke-dasharray:none;" d="m36,18.863c1.6391,0,3.2112,0.6512,4.3702,1.8102s1.8102,2.7311,1.8102,4.3702-0.6512,3.2112-1.8102,4.3702-2.7311,1.8102-4.3702,1.8102-3.2112-0.6512-4.3702-1.8102-1.8102-2.7311-1.8102-4.3702,0.6512-3.2112,1.8102-4.3702,2.731-1.81,4.37-1.81z"/>
     <path id="path7021" style="stroke-dasharray:none;" d="m45.391,18.863c1.6391,0,3.2112,0.6512,4.3702,1.8102s1.8102,2.7311,1.8102,4.3702-0.6512,3.2112-1.8102,4.3702-2.7311,1.8102-4.3702,1.8102-3.2112-0.6512-4.3702-1.8102-1.8102-2.7311-1.8102-4.3702,0.6512-3.2112,1.8102-4.3702,2.7311-1.8102,4.3702-1.8102z"/>
    </g>
   </g>
   <g id="g7023">
    <g id="g7025" stroke-linejoin="round" clip-path="url(#clipPath7027)" stroke-opacity="0.8" fill-rule="nonzero" fill-opacity="0.8" stroke="#00545c" stroke-linecap="butt" stroke-miterlimit="10" stroke-width="1" fill="#00545c">
     <path id="path7031" style="stroke-dasharray:none;" d="m36,2.6926c0.94631,0,1.854,0.37597,2.5231,1.0451,0.66914,0.66914,1.0451,1.5768,1.0451,2.5231,0,0.94631-0.37597,1.854-1.0451,2.5231-0.669,0.6692-1.577,1.0452-2.523,1.0452-0.94631,0-1.854-0.37597-2.5231-1.0451-0.66914-0.66914-1.0451-1.5768-1.0451-2.5231,0-0.94631,0.37597-1.854,1.0451-2.5231,0.669-0.6692,1.577-1.0452,2.523-1.0452z"/>
     <path id="path7033" style="stroke-dasharray:none;" d="m36,21.475c0.94631,0,1.854,0.37597,2.5231,1.0451,0.66914,0.66914,1.0451,1.5768,1.0451,2.5231,0,0.94631-0.37597,1.854-1.0451,2.5231-0.669,0.67-1.577,1.046-2.523,1.046-0.94631,0-1.854-0.37597-2.5231-1.0451-0.66914-0.66914-1.0451-1.5768-1.0451-2.5231,0-0.94631,0.37597-1.854,1.0451-2.5231,0.669-0.67,1.577-1.046,2.523-1.046z"/>
     <path id="path7035" style="stroke-dasharray:none;" d="m45.391,21.475c0.94631,0,1.854,0.37597,2.5231,1.0451,0.66914,0.66914,1.0451,1.5768,1.0451,2.5231,0,0.94631-0.37597,1.854-1.0451,2.5231-0.66914,0.66914-1.5768,1.0451-2.5231,1.0451-0.94631,0-1.854-0.37597-2.5231-1.0451-0.66914-0.66914-1.0451-1.5768-1.0451-2.5231,0-0.94631,0.37597-1.854,1.0451-2.5231,0.66914-0.66914,1.5768-1.0451,2.5231-1.0451z"/>
    </g>
   </g>
   <g id="g7037">
    <g id="g7039" stroke-linejoin="round" clip-path="url(#clipPath7041)" stroke-opacity="0.2" fill-rule="nonzero" fill-opacity="0.2" stroke="#808080" stroke-linecap="butt" stroke-miterlimit="10" stroke-width="1" fill="#808080">
     <path id="path7045" style="stroke-dasharray:none;" d="m54.783,18.863c1.6391,0,3.2112,0.6512,4.3702,1.8102s1.8102,2.7311,1.8102,4.3702-0.6512,3.2112-1.8102,4.3702-2.7311,1.8102-4.3702,1.8102-3.2112-0.6512-4.3702-1.8102-1.8102-2.7311-1.8102-4.3702,0.6512-3.2112,1.8102-4.3702,2.7311-1.8102,4.3702-1.8102z"/>
     <path id="path7047" style="stroke-dasharray:none;" d="m64.174,9.4718c1.6391,0,3.2112,0.6512,4.3702,1.8102s1.8102,2.7311,1.8102,4.3702-0.6512,3.2112-1.8102,4.3702-2.7311,1.8102-4.3702,1.8102-3.2112-0.6512-4.3702-1.8102-1.8102-2.7311-1.8102-4.3702,0.6512-3.2112,1.8102-4.3702,2.7311-1.8102,4.3702-1.8102z"/>
     <path id="path7049" style="stroke-dasharray:none;" d="m64.174,18.863c1.6391,0,3.2112,0.6512,4.3702,1.8102s1.8102,2.7311,1.8102,4.3702-0.6512,3.2112-1.8102,4.3702-2.7311,1.8102-4.3702,1.8102-3.2112-0.6512-4.3702-1.8102-1.8102-2.7311-1.8102-4.3702,0.6512-3.2112,1.8102-4.3702,2.7311-1.8102,4.3702-1.8102z"/>
    </g>
   </g>
   <g id="g7051">
    <g id="g7053" stroke-linejoin="round" clip-path="url(#clipPath7055)" stroke-opacity="0.8" fill-rule="nonzero" fill-opacity="0.8" stroke="#808080" stroke-linecap="butt" stroke-miterlimit="10" stroke-width="1" fill="#808080">
     <path id="path7059" style="stroke-dasharray:none;" d="m54.783,21.475c0.94631,0,1.854,0.37597,2.5231,1.0451,0.66914,0.66914,1.0451,1.5768,1.0451,2.5231,0,0.94631-0.37597,1.854-1.0451,2.5231-0.66914,0.66914-1.5768,1.0451-2.5231,1.0451-0.94631,0-1.854-0.37597-2.5231-1.0451-0.66914-0.66914-1.0451-1.5768-1.0451-2.5231,0-0.94631,0.37597-1.854,1.0451-2.5231,0.66914-0.66914,1.5768-1.0451,2.5231-1.0451z"/>
     <path id="path7061" style="stroke-dasharray:none;" d="m64.174,12.084c0.94631,0,1.854,0.37597,2.5231,1.0451,0.66914,0.66914,1.0451,1.5768,1.0451,2.5231,0,0.94631-0.37597,1.854-1.0451,2.5231-0.66914,0.66914-1.5768,1.0451-2.5231,1.0451-0.94631,0-1.854-0.37597-2.5231-1.0451-0.66914-0.66914-1.0451-1.5768-1.0451-2.5231,0-0.94631,0.37597-1.854,1.0451-2.5231,0.66914-0.66914,1.5768-1.0451,2.5231-1.0451z"/>
     <path id="path7063" style="stroke-dasharray:none;" d="m64.174,21.475c0.94631,0,1.854,0.37597,2.5231,1.0451,0.66914,0.66914,1.0451,1.5768,1.0451,2.5231,0,0.94631-0.37597,1.854-1.0451,2.5231-0.66914,0.66914-1.5768,1.0451-2.5231,1.0451-0.94631,0-1.854-0.37597-2.5231-1.0451-0.66914-0.66914-1.0451-1.5768-1.0451-2.5231,0-0.94631,0.37597-1.854,1.0451-2.5231,0.66914-0.66914,1.5768-1.0451,2.5231-1.0451z"/>
    </g>
   </g>
   <g id="g7065">
    <g id="g7067" clip-path="url(#clipPath7069)">
     <path id="path7073" stroke-linejoin="round" style="stroke-dasharray:none;" d="M5.2904,67.458,6.4699,31.291,7.5252,15.121,8.4563,8.1399,9.015,6.0226,9.5737,4.9707l1.0553-0.040236,1.3657,2.0632,8.2561,16.847,2.5451,3.1008,3.1659,2.7238,3.1659,1.8455,4.2212,1.5874,5.2765,1.1582,7.387,0.83516,11.608,0.54066,9.4976,0.17621" stroke-opacity="0.8" stroke="#00545c" stroke-linecap="square" stroke-miterlimit="10" stroke-width="2" fill="none"/>
    </g>
   </g>
   <g id="g7075">
    <g id="g7077" clip-path="url(#clipPath7079)">
     <path id="path7083" stroke-linejoin="round" style="stroke-dasharray:none;" d="M5.2904,67.458,6.4699,31.291,7.5252,15.121,8.4563,8.1399,9.015,6.0226,9.5737,4.9707l1.0553-0.040236,1.3657,2.0632,8.2561,16.847,2.5451,3.1008,3.1659,2.7238,3.1659,1.8455,4.2212,1.5874,5.2765,1.1582,7.387,0.83516,11.608,0.54066,9.4976,0.17621" stroke-opacity="0.6" stroke="#00545c" stroke-linecap="square" stroke-miterlimit="10" stroke-width="4" fill="none"/>
    </g>
   </g>
   <g id="g7085">
    <g id="g7087" clip-path="url(#clipPath7089)">
     <path id="path7093" stroke-linejoin="round" style="stroke-dasharray:none;" d="M5.2904,67.458,6.4699,31.291,7.5252,15.121,8.4563,8.1399,9.015,6.0226,9.5737,4.9707l1.0553-0.040236,1.3657,2.0632,8.2561,16.847,2.5451,3.1008,3.1659,2.7238,3.1659,1.8455,4.2212,1.5874,5.2765,1.1582,7.387,0.83516,11.608,0.54066,9.4976,0.17621" stroke-opacity="0.4" stroke="#00545c" stroke-linecap="square" stroke-miterlimit="10" stroke-width="6" fill="none"/>
    </g>
   </g>
   <g id="g7095">
    <g id="g7097" clip-path="url(#clipPath7099)">
     <path id="path7103" stroke-linejoin="round" style="stroke-dasharray:none;" d="M5.2904,67.458,6.4699,31.291,7.5252,15.121,8.4563,8.1399,9.015,6.0226,9.5737,4.9707l1.0553-0.040236,1.3657,2.0632,8.2561,16.847,2.5451,3.1008,3.1659,2.7238,3.1659,1.8455,4.2212,1.5874,5.2765,1.1582,7.387,0.83516,11.608,0.54066,9.4976,0.17621" stroke-opacity="0.2" stroke="#00545c" stroke-linecap="square" stroke-miterlimit="10" stroke-width="8" fill="none"/>
    </g>
   </g>
   <g id="g7105">
    <g id="g7107" clip-path="url(#clipPath7109)">
     <path id="path7113" stroke-linejoin="round" style="stroke-dasharray:none;" d="M5.2904,67.458,6.4699,31.291,7.5252,15.121,8.4563,8.1399,9.015,6.0226,9.5737,4.9707l1.0553-0.040236,1.3657,2.0632,8.2561,16.847,2.5451,3.1008,3.1659,2.7238,3.1659,1.8455,4.2212,1.5874,5.2765,1.1582,7.387,0.83516,11.608,0.54066,9.4976,0.17621" stroke-opacity="0.1" stroke="#00545c" stroke-linecap="square" stroke-miterlimit="10" stroke-width="10" fill="none"/>
    </g>
   </g>
  </g>
 </g>
</svg>