<?xml version="1.0" encoding="UTF-8" standalone="no"?>
<!DOCTYPE svg PUBLIC "-//W3C//DTD SVG 1.1//EN"
 "http://www.w3.org/Graphics/SVG/1.1/DTD/svg11.dtd">
<!-- Generated by graphviz version 2.38.0 (20140413.2041)
 -->
<!-- Title: mdsim Pages: 1 -->
<svg width="994pt" height="543pt"
 viewBox="0.00 0.00 994.00 543.00" xmlns="http://www.w3.org/2000/svg" xmlns:xlink="http://www.w3.org/1999/xlink">
<g id="graph0" class="graph" transform="scale(1 1) rotate(0) translate(4 539)">
<title>mdsim</title>
<polygon fill="white" stroke="none" points="-4,4 -4,-539 990,-539 990,4 -4,4"/>
<g id="clust16" class="cluster"><title>clusterdisplacement</title>
<polygon fill="none" stroke="black" points="644,-117.5 644,-200.5 763,-200.5 763,-117.5 644,-117.5"/>
<text text-anchor="middle" x="703.5" y="-185.3" font-family="Times,serif" font-size="14.00">max_displacement</text>
</g>
<g id="clust17" class="cluster"><title>clustersort</title>
<polygon fill="none" stroke="black" points="896,-117.5 896,-200.5 978,-200.5 978,-117.5 896,-117.5"/>
<text text-anchor="middle" x="914.5" y="-185.3" font-family="Times,serif" font-size="14.00">sort</text>
</g>
<g id="clust18" class="cluster"><title>clusterbinning</title>
<polygon fill="none" stroke="black" points="788,-117.5 788,-200.5 866,-200.5 866,-117.5 788,-117.5"/>
<text text-anchor="middle" x="817" y="-185.3" font-family="Times,serif" font-size="14.00">binning</text>
</g>
<g id="clust19" class="cluster"><title>clusterneighbour</title>
<polygon fill="none" stroke="black" points="573,-8 573,-92 881,-92 881,-8 573,-8"/>
<text text-anchor="middle" x="608.5" y="-76.8" font-family="Times,serif" font-size="14.00">neighbour</text>
</g>
<g id="clust6" class="cluster"><title>clustersampler</title>
<polygon fill="none" stroke="black" points="8,-335 8,-527 128,-527 128,-335 8,-335"/>
<text text-anchor="middle" x="38" y="-511.8" font-family="Times,serif" font-size="14.00">sampler</text>
</g>
<g id="clust8" class="cluster"><title>clustercore</title>
<polygon fill="none" stroke="black" points="159,-335 159,-527 438,-527 438,-335 159,-335"/>
<text text-anchor="middle" x="179" y="-511.8" font-family="Times,serif" font-size="14.00">core</text>
</g>
<g id="clust10" class="cluster"><title>clusterclock</title>
<polygon fill="none" stroke="black" points="29,-117 29,-201 139,-201 139,-117 29,-117"/>
<text text-anchor="middle" x="52" y="-185.8" font-family="Times,serif" font-size="14.00">clock</text>
</g>
<g id="clust11" class="cluster"><title>clusterparticle</title>
<polygon fill="none" stroke="black" points="468,-226 468,-418.5 722,-418.5 722,-226 468,-226"/>
<text text-anchor="middle" x="496.5" y="-403.3" font-family="Times,serif" font-size="14.00">particle</text>
</g>
<g id="clust12" class="cluster"><title>clusterverlet</title>
<polygon fill="none" stroke="black" points="17,-226.5 17,-309.5 417,-309.5 417,-226.5 17,-226.5"/>
<text text-anchor="middle" x="40.5" y="-294.3" font-family="Times,serif" font-size="14.00">verlet</text>
</g>
<g id="clust13" class="cluster"><title>clusterforce</title>
<polygon fill="none" stroke="black" points="370,-117.5 370,-200.5 621,-200.5 621,-117.5 370,-117.5"/>
<text text-anchor="middle" x="392" y="-185.3" font-family="Times,serif" font-size="14.00">force</text>
</g>
<!-- sampler_run -->
<g id="node1" class="node"><title>sampler_run</title>
<ellipse fill="none" stroke="black" cx="78" cy="-474" rx="27" ry="18"/>
<text text-anchor="middle" x="78" y="-470.3" font-family="Times,serif" font-size="14.00">run</text>
</g>
<!-- core_mdstep -->
<g id="node2" class="node"><title>core_mdstep</title>
<ellipse fill="none" stroke="black" cx="219" cy="-474" rx="36.2938" ry="18"/>
<text text-anchor="middle" x="219" y="-470.3" font-family="Times,serif" font-size="14.00">mdstep</text>
</g>
<!-- sampler_run&#45;&gt;core_mdstep -->
<g id="edge2" class="edge"><title>sampler_run&#45;&gt;core_mdstep</title>
<path fill="none" stroke="black" d="M105.264,-474C127.61,-474 149.956,-474 172.302,-474"/>
<polygon fill="black" stroke="black" points="172.569,-477.5 182.569,-474 172.569,-470.5 172.569,-477.5"/>
</g>
<!-- sampler_on_sample -->
<g id="node3" class="node"><title>sampler_on_sample</title>
<polygon fill="none" stroke="black" points="20,-347.5 20,-383.5 116,-383.5 116,-347.5 20,-347.5"/>
<text text-anchor="middle" x="30" y="-361.8" font-family="Times,serif" font-size="14.00"> </text>
<polyline fill="none" stroke="black" points="40,-347.5 40,-383.5 "/>
<text text-anchor="middle" x="68" y="-361.8" font-family="Times,serif" font-size="14.00">sample</text>
<polyline fill="none" stroke="black" points="96,-347.5 96,-383.5 "/>
<text text-anchor="middle" x="106" y="-361.8" font-family="Times,serif" font-size="14.00"> </text>
</g>
<!-- sampler_run&#45;&gt;sampler_on_sample -->
<g id="edge1" class="edge"><title>sampler_run&#45;&gt;sampler_on_sample</title>
<path fill="none" stroke="black" d="M76.3933,-455.889C74.8188,-439.12 72.3942,-413.299 70.5551,-393.712"/>
<polygon fill="black" stroke="black" points="74.0223,-393.198 69.6027,-383.569 67.053,-393.852 74.0223,-393.198"/>
</g>
<!-- core_on_finalize -->
<g id="node4" class="node"><title>core_on_finalize</title>
<polygon fill="none" stroke="black" points="170.5,-347.5 170.5,-383.5 267.5,-383.5 267.5,-347.5 170.5,-347.5"/>
<text text-anchor="middle" x="180.5" y="-361.8" font-family="Times,serif" font-size="14.00"> </text>
<polyline fill="none" stroke="black" points="190.5,-347.5 190.5,-383.5 "/>
<text text-anchor="middle" x="219" y="-361.8" font-family="Times,serif" font-size="14.00">finalize</text>
<polyline fill="none" stroke="black" points="247.5,-347.5 247.5,-383.5 "/>
<text text-anchor="middle" x="257.5" y="-361.8" font-family="Times,serif" font-size="14.00"> </text>
</g>
<!-- core_mdstep&#45;&gt;core_on_finalize -->
<g id="edge4" class="edge"><title>core_mdstep&#45;&gt;core_on_finalize</title>
<path fill="none" stroke="black" d="M219,-455.889C219,-439.12 219,-413.299 219,-393.712"/>
<polygon fill="black" stroke="black" points="222.5,-393.569 219,-383.569 215.5,-393.569 222.5,-393.569"/>
</g>
<!-- core_on_integrate -->
<g id="node16" class="node"><title>core_on_integrate</title>
<polygon fill="none" stroke="black" points="322,-347.5 322,-383.5 426,-383.5 426,-347.5 322,-347.5"/>
<text text-anchor="middle" x="332" y="-361.8" font-family="Times,serif" font-size="14.00"> </text>
<polyline fill="none" stroke="black" points="342,-347.5 342,-383.5 "/>
<text text-anchor="middle" x="374" y="-361.8" font-family="Times,serif" font-size="14.00">integrate</text>
<polyline fill="none" stroke="black" points="406,-347.5 406,-383.5 "/>
<text text-anchor="middle" x="416" y="-361.8" font-family="Times,serif" font-size="14.00"> </text>
</g>
<!-- core_mdstep&#45;&gt;core_on_integrate -->
<g id="edge3" class="edge"><title>core_mdstep&#45;&gt;core_on_integrate</title>
<path fill="none" stroke="black" d="M239.583,-458.858C265.477,-441.066 310.263,-410.294 340.97,-389.194"/>
<polygon fill="black" stroke="black" points="342.971,-392.067 349.231,-383.519 339.007,-386.297 342.971,-392.067"/>
</g>
<!-- verlet_finalize -->
<g id="node17" class="node"><title>verlet_finalize</title>
<ellipse fill="none" stroke="black" cx="230" cy="-256.5" rx="37.0935" ry="18"/>
<text text-anchor="middle" x="230" y="-252.8" font-family="Times,serif" font-size="14.00">finalize</text>
</g>
<!-- core_on_finalize&#45;&gt;verlet_finalize -->
<g id="edge7" class="edge"><title>core_on_finalize&#45;&gt;verlet_finalize</title>
<path fill="none" stroke="black" d="M221.816,-337.111C223.84,-317.421 226.507,-291.481 228.237,-274.649"/>
<polygon fill="black" stroke="black" points="217.286,-346.951 221.79,-337.361 224.249,-347.667 217.286,-346.951"/>
</g>
<!-- particle_rearrange -->
<g id="node5" class="node"><title>particle_rearrange</title>
<ellipse fill="none" stroke="black" cx="666" cy="-365.5" rx="44.393" ry="18"/>
<text text-anchor="middle" x="666" y="-361.8" font-family="Times,serif" font-size="14.00">rearrange</text>
</g>
<!-- particle_get_force -->
<g id="node6" class="node"><title>particle_get_force</title>
<ellipse fill="none" stroke="black" cx="524" cy="-365.5" rx="44.393" ry="18"/>
<text text-anchor="middle" x="524" y="-361.8" font-family="Times,serif" font-size="14.00">get_force</text>
</g>
<!-- verlet_integrate -->
<g id="node8" class="node"><title>verlet_integrate</title>
<ellipse fill="none" stroke="black" cx="363" cy="-256.5" rx="41.6928" ry="18"/>
<text text-anchor="middle" x="363" y="-252.8" font-family="Times,serif" font-size="14.00">integrate</text>
</g>
<!-- particle_get_force&#45;&gt;verlet_integrate -->
<g id="edge9" class="edge"><title>particle_get_force:sw&#45;&gt;verlet_integrate</title>
<path fill="none" stroke="black" stroke-dasharray="5,2" d="M507,-347.5C489.56,-330.06 433.402,-296.971 396.589,-276.139"/>
<polygon fill="black" stroke="black" points="398.112,-272.98 387.682,-271.124 394.678,-279.08 398.112,-272.98"/>
</g>
<!-- particle_on_force -->
<g id="node9" class="node"><title>particle_on_force</title>
<polygon fill="none" stroke="black" points="482,-238.5 482,-274.5 566,-274.5 566,-238.5 482,-238.5"/>
<text text-anchor="middle" x="492" y="-252.8" font-family="Times,serif" font-size="14.00"> </text>
<polyline fill="none" stroke="black" points="502,-238.5 502,-274.5 "/>
<text text-anchor="middle" x="524" y="-252.8" font-family="Times,serif" font-size="14.00">force</text>
<polyline fill="none" stroke="black" points="546,-238.5 546,-274.5 "/>
<text text-anchor="middle" x="556" y="-252.8" font-family="Times,serif" font-size="14.00"> </text>
</g>
<!-- particle_get_force&#45;&gt;particle_on_force -->
<g id="edge5" class="edge"><title>particle_get_force&#45;&gt;particle_on_force</title>
<path fill="none" stroke="black" d="M524,-347.309C524,-330.461 524,-304.518 524,-284.839"/>
<polygon fill="black" stroke="black" points="527.5,-284.649 524,-274.649 520.5,-284.649 527.5,-284.649"/>
</g>
<!-- A_ -->
<g id="node7" class="node"><title>A_</title>
</g>
<!-- A_&#45;&gt;particle_rearrange -->
<g id="edge21" class="edge"><title>A_:w&#45;&gt;particle_rearrange</title>
<path fill="none" stroke="black" d="M826.5,-365.5C791.172,-365.5 751.443,-365.5 720.474,-365.5"/>
<polygon fill="black" stroke="black" points="720.326,-362 710.326,-365.5 720.326,-369 720.326,-362"/>
</g>
<!-- binning_cell -->
<g id="node14" class="node"><title>binning_cell</title>
<ellipse fill="none" stroke="black" cx="827" cy="-147.5" rx="27" ry="18"/>
<text text-anchor="middle" x="827" y="-143.8" font-family="Times,serif" font-size="14.00">cell</text>
</g>
<!-- A_&#45;&gt;binning_cell -->
<g id="edge19" class="edge"><title>A_&#45;&gt;binning_cell</title>
</g>
<!-- force_check_cache -->
<g id="node11" class="node"><title>force_check_cache</title>
<ellipse fill="none" stroke="black" cx="438" cy="-147.5" rx="55.7903" ry="18"/>
<text text-anchor="middle" x="438" y="-143.8" font-family="Times,serif" font-size="14.00">check_cache</text>
</g>
<!-- particle_on_force&#45;&gt;force_check_cache -->
<g id="edge10" class="edge"><title>particle_on_force:prepend&#45;&gt;force_check_cache</title>
<path fill="none" stroke="black" d="M491.183,-227.469C487.187,-202.496 469.319,-179.444 455.383,-164.773"/>
<polygon fill="black" stroke="black" points="488.512,-237.784 491.189,-227.533 495.488,-237.216 488.512,-237.784"/>
</g>
<!-- force_apply -->
<g id="node19" class="node"><title>force_apply</title>
<ellipse fill="none" stroke="black" cx="578" cy="-147.5" rx="30.5947" ry="18"/>
<text text-anchor="middle" x="578" y="-143.8" font-family="Times,serif" font-size="14.00">apply</text>
</g>
<!-- particle_on_force&#45;&gt;force_apply -->
<g id="edge11" class="edge"><title>particle_on_force&#45;&gt;force_apply</title>
<path fill="none" stroke="black" d="M537.194,-229.356C547.339,-209.255 561.041,-182.104 569.7,-164.946"/>
<polygon fill="black" stroke="black" points="529.551,-236.732 537.182,-229.381 535.801,-239.886 529.551,-236.732"/>
</g>
<!-- clock_on_set_timestep -->
<g id="node10" class="node"><title>clock_on_set_timestep</title>
<polygon fill="none" stroke="black" points="41.5,-129.5 41.5,-165.5 126.5,-165.5 126.5,-129.5 41.5,-129.5"/>
<text text-anchor="middle" x="84" y="-143.8" font-family="Times,serif" font-size="14.00">set_timestep</text>
</g>
<!-- verlet_set_timestep -->
<g id="node18" class="node"><title>verlet_set_timestep</title>
<ellipse fill="none" stroke="black" cx="84" cy="-256.5" rx="55.4913" ry="18"/>
<text text-anchor="middle" x="84" y="-252.8" font-family="Times,serif" font-size="14.00">set_timestep</text>
</g>
<!-- clock_on_set_timestep&#45;&gt;verlet_set_timestep -->
<g id="edge8" class="edge"><title>clock_on_set_timestep&#45;&gt;verlet_set_timestep</title>
<path fill="none" stroke="black" d="M84,-175.839C84,-195.518 84,-221.461 84,-238.309"/>
<polygon fill="black" stroke="black" points="87.5,-165.649 84.0001,-175.649 80.5,-165.649 87.5,-165.649"/>
</g>
<!-- displacement_compute -->
<g id="node12" class="node"><title>displacement_compute</title>
<ellipse fill="none" stroke="black" cx="704" cy="-147.5" rx="41.6928" ry="18"/>
<text text-anchor="middle" x="704" y="-143.8" font-family="Times,serif" font-size="14.00">compute</text>
</g>
<!-- neighbour_check -->
<g id="node20" class="node"><title>neighbour_check</title>
<polygon fill="none" stroke="black" points="708,-53 693.5,-38.5 708,-24 722.5,-38.5 708,-53"/>
<text text-anchor="middle" x="708" y="-34.8" font-family="Times,serif" font-size="14.00">?</text>
</g>
<!-- displacement_compute&#45;&gt;neighbour_check -->
<g id="edge15" class="edge"><title>displacement_compute&#45;&gt;neighbour_check</title>
<path fill="none" stroke="black" stroke-dasharray="5,2" d="M704.643,-129.309C705.317,-111.265 706.382,-82.7882 707.131,-62.7477"/>
<polygon fill="black" stroke="black" points="710.634,-62.7257 707.51,-52.6019 703.639,-62.4641 710.634,-62.7257"/>
</g>
<!-- sort_order -->
<g id="node13" class="node"><title>sort_order</title>
<ellipse fill="none" stroke="black" cx="937" cy="-147.5" rx="29.4969" ry="18"/>
<text text-anchor="middle" x="937" y="-143.8" font-family="Times,serif" font-size="14.00">order</text>
</g>
<!-- sort_order&#45;&gt;A_ -->
<g id="edge20" class="edge"><title>sort_order&#45;&gt;A_:e</title>
<path fill="none" stroke="black" d="M936.432,-165.528C933.732,-216.683 918.213,-365.5 829,-365.5"/>
</g>
<!-- binning_cell&#45;&gt;sort_order -->
<g id="edge17" class="edge"><title>binning_cell&#45;&gt;sort_order</title>
<path fill="none" stroke="black" stroke-dasharray="5,2" d="M854.07,-147.5C868.547,-147.5 883.023,-147.5 897.499,-147.5"/>
<polygon fill="black" stroke="black" points="897.521,-151 907.521,-147.5 897.521,-144 897.521,-151"/>
</g>
<!-- neighbour_on_update -->
<g id="node21" class="node"><title>neighbour_on_update</title>
<path fill="none" stroke="black" d="M788.5,-20.5C788.5,-20.5 857.5,-20.5 857.5,-20.5 863.5,-20.5 869.5,-26.5 869.5,-32.5 869.5,-32.5 869.5,-44.5 869.5,-44.5 869.5,-50.5 863.5,-56.5 857.5,-56.5 857.5,-56.5 788.5,-56.5 788.5,-56.5 782.5,-56.5 776.5,-50.5 776.5,-44.5 776.5,-44.5 776.5,-32.5 776.5,-32.5 776.5,-26.5 782.5,-20.5 788.5,-20.5"/>
<text text-anchor="middle" x="786.5" y="-34.8" font-family="Times,serif" font-size="14.00"> </text>
<polyline fill="none" stroke="black" points="796.5,-20.5 796.5,-56.5 "/>
<text text-anchor="middle" x="823" y="-34.8" font-family="Times,serif" font-size="14.00">update</text>
<polyline fill="none" stroke="black" points="849.5,-20.5 849.5,-56.5 "/>
<text text-anchor="middle" x="859.5" y="-34.8" font-family="Times,serif" font-size="14.00"> </text>
</g>
<!-- binning_cell&#45;&gt;neighbour_on_update -->
<g id="edge16" class="edge"><title>binning_cell&#45;&gt;neighbour_on_update</title>
<path fill="none" stroke="black" stroke-dasharray="5,2" d="M826.357,-129.309C825.728,-112.461 824.758,-86.5183 824.022,-66.8394"/>
<polygon fill="black" stroke="black" points="827.512,-66.511 823.641,-56.6487 820.517,-66.7725 827.512,-66.511"/>
</g>
<!-- neighbour_lists -->
<g id="node15" class="node"><title>neighbour_lists</title>
<ellipse fill="none" stroke="black" cx="612" cy="-38.5" rx="27" ry="18"/>
<text text-anchor="middle" x="612" y="-34.8" font-family="Times,serif" font-size="14.00">lists</text>
</g>
<!-- neighbour_lists&#45;&gt;force_apply -->
<g id="edge18" class="edge"><title>neighbour_lists&#45;&gt;force_apply</title>
<path fill="none" stroke="black" stroke-dasharray="5,2" d="M606.663,-56.296C601.274,-73.254 592.868,-99.7109 586.549,-119.595"/>
<polygon fill="black" stroke="black" points="583.155,-118.718 583.463,-129.309 589.827,-120.838 583.155,-118.718"/>
</g>
<!-- neighbour_lists&#45;&gt;neighbour_check -->
<g id="edge12" class="edge"><title>neighbour_lists&#45;&gt;neighbour_check</title>
<path fill="none" stroke="black" d="M639,-38.5C657.148,-38.5 675.297,-38.5 693.445,-38.5"/>
</g>
<!-- core_on_integrate&#45;&gt;verlet_integrate -->
<g id="edge6" class="edge"><title>core_on_integrate&#45;&gt;verlet_integrate</title>
<path fill="none" stroke="black" d="M371.184,-337.111C369.16,-317.421 366.493,-291.481 364.763,-274.649"/>
<polygon fill="black" stroke="black" points="368.751,-347.667 371.21,-337.361 375.714,-346.951 368.751,-347.667"/>
</g>
<!-- neighbour_check&#45;&gt;neighbour_on_update -->
<g id="edge13" class="edge"><title>neighbour_check&#45;&gt;neighbour_on_update</title>
<path fill="none" stroke="black" d="M722.824,-38.5C737.344,-38.5 751.863,-38.5 766.382,-38.5"/>
<polygon fill="black" stroke="black" points="766.434,-42.0001 776.434,-38.5 766.434,-35.0001 766.434,-42.0001"/>
</g>
<!-- neighbour_on_update&#45;&gt;sort_order -->
<g id="edge14" class="edge"><title>neighbour_on_update:prepend&#45;&gt;sort_order:s</title>
<path fill="none" stroke="black" d="M787.129,-67.6656C800.947,-124.198 937,-58.1063 937,-128.5"/>
<polygon fill="black" stroke="black" points="789.479,-57.1138 787.104,-67.4389 782.521,-57.8862 789.479,-57.1138"/>
</g>
</g>
</svg>
